<svg width="29" height="26" viewBox="0 0 29 26" fill="none" xmlns="http://www.w3.org/2000/svg">
<path d="M10.737 0.000152377C10.3312 -0.00609173 9.73172 0.179358 9.76294 0.595216C9.78792 0.946135 12.0545 0.849976 12.0608 0.582103C12.0733 0.194344 11.1804 0.00389884 10.737 0.000152377ZM6.07892 2.62205C5.07986 3.06788 4.01274 3.62985 3.21786 4.39164C1.11859 6.58332 -0.286331 9.88021 0.0496022 15.169C1.06427 16.5739 4.82385 17.4606 6.79699 17.7728C9.98773 16.3991 19.6786 14.9442 23.3501 16.3928C23.2627 13.4144 22.4884 9.79904 20.534 6.90801C19.3102 4.67262 17.3995 3.03666 14.9206 2.17248C12.0733 1.26708 8.86379 1.3545 6.07892 2.62205ZM7.97088 18.8592C9.90031 21.7315 11.8547 24.0356 14.7582 25.2033C14.9206 25.2345 15.1703 25.2719 15.3702 25.1221C17.7929 23.2926 24.5365 23.0241 28.6451 24.198C28.8699 24.2604 29.0885 23.917 28.9636 23.6859C27.8771 21.7066 26.6595 19.7084 24.2805 18.0662C19.3601 16.0307 12.348 17.5792 7.97088 18.8592Z" fill="#4EE79D"/>
</svg>
