<svg width="30" height="26" viewBox="0 0 30 26" fill="none" xmlns="http://www.w3.org/2000/svg">
<path fill-rule="evenodd" clip-rule="evenodd" d="M6.08267 1.27767C6.87972 0.480387 7.96082 0.03235 9.08818 0.0321092C10.2076 0.0321092 11.8485 -0.279636 12.3502 1.03961C12.5547 1.57673 12.9176 2.039 13.3909 2.36517C13.8641 2.69134 14.4253 2.866 15 2.866C15.5747 2.866 16.1359 2.69134 16.6091 2.36517C17.0824 2.039 17.4453 1.57673 17.6498 1.03961C18.1515 -0.278219 19.7938 0.0335262 20.9118 0.0335262C22.0385 0.0337667 23.119 0.481254 23.9159 1.27767L29.1702 6.53058C29.7015 7.06204 30 7.78276 30 8.53425C30 9.28573 29.7015 10.0065 29.1702 10.5379L27.0759 12.6323C26.339 13.3691 25.3103 13.6086 24.3835 13.3776L24.769 21.0749C24.7978 21.6503 24.7093 22.2256 24.509 22.7657C24.3086 23.3059 24.0006 23.7997 23.6035 24.2172C23.2065 24.6346 22.7287 24.967 22.1992 25.1942C21.6698 25.4213 21.0997 25.5385 20.5236 25.5385H9.47645C8.90032 25.5385 8.33021 25.4213 7.80075 25.1942C7.2713 24.967 6.79353 24.6346 6.39648 24.2172C5.99943 23.7997 5.69138 23.3059 5.49104 22.7657C5.29069 22.2256 5.20224 21.6503 5.23104 21.0749L5.61647 13.3776C5.14158 13.4971 4.6438 13.4912 4.17186 13.3606C3.69992 13.2299 3.26998 12.979 2.92413 12.6323L0.82977 10.5379C0.298469 10.0065 0 9.28573 0 8.53425C0 7.78276 0.298469 7.06204 0.82977 6.53058L6.08267 1.27767Z" fill="white" fill-opacity="0.1"/>
</svg>
