<svg width="34" height="34" viewBox="0 0 34 34" fill="none" xmlns="http://www.w3.org/2000/svg">
<path d="M22.0749 24.7399C21.4975 24.7399 20.9201 24.7499 20.3427 24.7399C19.9462 24.7298 19.6321 24.8513 19.455 25.2194C19.2779 25.5876 19.4157 25.907 19.6583 26.2117C21.5953 28.6465 20.4843 32.0697 17.5026 32.8454C16.4894 33.1084 15.4555 32.9939 14.4408 32.8625C10.1333 32.3033 6.54494 30.3666 3.77415 27.0045C1.03185 23.6787 -0.243833 19.8193 0.0410219 15.5012C0.393626 10.1491 2.81643 5.92153 7.18548 2.86106C9.98783 0.89809 13.1428 -0.00682579 16.5641 0.00400225C21.2411 0.0194709 25.3022 1.60346 28.7005 4.82635C31.1725 7.17062 32.576 10.0779 32.9348 13.4772C33.3528 17.4619 31.8693 20.6105 28.672 22.9401C26.7858 24.3153 24.617 24.8072 22.3097 24.7445C22.2289 24.7383 22.1519 24.7399 22.0749 24.7399ZM4.27073 18.9747C4.27419 19.6324 4.5374 20.2617 5.00253 20.7245C5.46766 21.1873 6.09664 21.4456 6.75127 21.4427C7.40609 21.4374 8.03233 21.1725 8.49372 20.7057C8.9551 20.2389 9.21429 19.6078 9.21487 18.95C9.20658 18.2928 8.94097 17.6653 8.47557 17.2034C8.01016 16.7415 7.38239 16.4823 6.72817 16.482C6.40367 16.4828 6.08252 16.548 5.78318 16.6738C5.48383 16.7997 5.21218 16.9837 4.98384 17.2153C4.75549 17.447 4.57494 17.7216 4.45257 18.0236C4.33019 18.3255 4.26839 18.6487 4.27073 18.9747ZM8.36416 13.2513C9.01229 13.2472 9.63303 12.9882 10.0935 12.53C10.5539 12.0718 10.8175 11.4506 10.8278 10.7996C10.8393 9.44373 9.71991 8.29519 8.3811 8.28823C8.05382 8.28618 7.72938 8.34934 7.42655 8.47405C7.12372 8.59877 6.84851 8.78256 6.61683 9.0148C6.38516 9.24705 6.20161 9.52313 6.07682 9.82709C5.95202 10.131 5.88845 10.4568 5.88978 10.7856C5.89089 11.1109 5.95578 11.4327 6.08076 11.7327C6.20574 12.0327 6.38835 12.305 6.61815 12.534C6.84795 12.7631 7.12043 12.9444 7.42002 13.0676C7.71962 13.1908 8.04044 13.2528 8.36416 13.2513ZM20.6676 7.43745C20.6702 8.09447 20.9313 8.72379 21.394 9.18815C21.8567 9.65252 22.4833 9.91426 23.1373 9.9163C23.7914 9.90982 24.4167 9.64533 24.8785 9.17987C25.3402 8.71442 25.6013 8.08529 25.6056 7.42817C25.6015 6.77075 25.3388 6.14161 24.8749 5.67797C24.4109 5.21432 23.7833 4.95379 23.1289 4.95319C22.8047 4.95349 22.4838 5.01807 22.1845 5.14321C21.8852 5.26836 21.6134 5.45161 21.3848 5.68247C21.1561 5.91333 20.9751 6.18725 20.852 6.48854C20.7289 6.78983 20.6662 7.11178 20.6676 7.43745ZM14.9374 8.2395C15.5914 8.24263 16.2201 7.98624 16.687 7.52609C17.1538 7.06595 17.4209 6.43926 17.4302 5.78231C17.4425 4.43654 16.3208 3.29263 14.972 3.27639C13.6232 3.26015 12.5061 4.37234 12.4907 5.74364C12.4869 6.06926 12.5474 6.39241 12.6685 6.69446C12.7897 6.9965 12.9692 7.27146 13.1966 7.50348C13.4241 7.7355 13.695 7.91999 13.9938 8.04632C14.2925 8.17264 14.6132 8.2383 14.9374 8.2395Z" fill="white"/>
</svg>
