<svg width="40" height="30" viewBox="0 0 40 30" fill="none" xmlns="http://www.w3.org/2000/svg">
<path d="M13.9691 16.469C14.6255 15.2757 15.2697 14.0898 15.9252 12.9095C16.3322 12.1758 16.8479 11.9026 17.5071 12.0499C18.4636 12.2625 18.8978 13.2107 18.4308 14.0712C18.157 14.5755 17.8803 15.078 17.6065 15.5834C17.5943 15.6067 17.6065 15.6421 17.6065 15.6589H18.9803C19.8111 14.4842 20.6119 13.3393 21.4268 12.2047C21.9894 11.4178 23.0275 11.3479 23.6408 12.0378C24.0318 12.4797 24.0852 13.123 23.728 13.6824C23.3857 14.2175 23.0003 14.7266 22.6355 15.2477C22.5117 15.4239 22.3917 15.602 22.2239 15.8463L23.8855 16.1026C24.2887 15.5759 24.7032 15.037 25.1139 14.4954C25.6025 13.8502 26.0835 13.2004 26.574 12.5571C27.1206 11.842 27.9261 11.7022 28.576 12.2028C29.2024 12.6848 29.2868 13.5081 28.7757 14.1896C28.1268 15.0585 27.4742 15.9246 26.7934 16.8308L28.3875 17.3901L30.7656 14.8114C31.1557 14.3881 31.5345 13.9546 31.9387 13.5444C32.5332 12.9412 33.3715 12.9244 33.9416 13.4848C34.4667 14.0003 34.4564 14.8832 33.921 15.4603L31.0384 18.5658L32.4019 19.3424C33.3199 18.3169 34.222 17.3118 35.126 16.3068C35.3548 16.0523 35.5714 15.7857 35.8227 15.5545C36.42 15.0063 37.189 15.0175 37.7488 15.561C38.287 16.0831 38.3114 16.8429 37.7853 17.4461C37.0595 18.2777 36.3028 19.0841 35.5826 19.9213C34.6468 21.0056 33.7513 22.1141 32.8173 23.1937C31.2232 25.0369 29.313 26.4968 27.1994 27.7042C25.434 28.731 23.5001 29.4399 21.4868 29.7981C19.0703 30.2148 16.696 29.9557 14.3611 29.303C11.4074 28.4839 8.65737 27.0631 6.28542 25.131C5.78805 24.7321 5.32823 24.289 4.91166 23.8072C4.34903 23.1545 4.32934 22.3835 4.9698 21.8036C6.00069 20.8596 7.09096 19.9818 8.23401 19.1755C9.96785 17.9682 11.8986 17.1254 13.9691 16.469ZM13.2649 19.7656C13.0914 19.7889 12.8954 19.7656 12.7473 19.8421C11.8442 20.2961 10.929 20.7334 10.0626 21.2517C9.28613 21.7179 8.56877 22.2773 7.77921 22.8282C9.4406 24.1885 11.3078 25.2791 13.3118 26.0596C12.8007 25.0602 12.5081 24.0906 12.4884 23.0473C12.4669 21.882 12.661 20.7688 13.2724 19.7545L13.2574 19.7386L13.2649 19.7656ZM24.8429 19.1839C26.091 21.2256 26.2298 23.3457 25.3296 25.6223C27.3145 24.5659 29.1047 23.1823 30.624 21.5305C29.5625 20.7306 26.0779 19.3172 24.8429 19.1839Z" fill="white"/>
<path d="M24.225 0C27.2407 0.0801776 29.8916 1.15605 32.2697 2.91902C35.5011 5.31503 37.9898 8.34406 39.8268 11.9092C40.1306 12.4993 40.0246 13.1128 39.5886 13.4708C39.2313 13.7644 38.5768 13.7961 38.1876 13.4931C37.9773 13.3093 37.7906 13.1005 37.6316 12.8713C35.9418 10.6691 33.8793 8.77619 31.5364 7.27752C29.9122 6.24266 28.1043 5.71125 26.1914 5.43529C23.7917 5.08848 21.5646 5.69074 19.3976 6.54286C16.5588 7.66162 13.7456 8.84471 10.9581 10.0921C8.75444 11.0766 6.60987 12.1907 4.43717 13.2433C3.72809 13.5852 2.91452 13.6452 2.16244 13.4112C1.41035 13.1771 0.776422 12.6666 0.389972 11.9838C-0.402402 10.5723 0.0336367 8.80089 1.50773 7.99259C3.07194 7.12199 4.6846 6.3404 6.33793 5.65159C9.37709 4.40697 12.4434 3.21829 15.536 2.10886C17.8475 1.28191 20.2031 0.557514 22.6393 0.151032C23.1653 0.0736511 23.698 0.0512764 24.225 0Z" fill="white"/>
</svg>
