<svg width="34" height="30" viewBox="0 0 34 30" fill="none" xmlns="http://www.w3.org/2000/svg">
<path d="M0.967634 14.5175C0.898911 14.4272 0.853084 14.3564 0.797087 14.2949C-0.171401 13.2367 -0.266846 12.1732 0.562924 10.9972C1.23234 10.0477 2.06721 9.29463 3.16296 8.87292C3.51039 8.74195 3.81837 8.49966 4.14544 8.30845L4.07162 8.11855C3.83236 8.0845 3.52821 8.13427 3.36658 8.00068C3.02424 7.7178 2.64117 7.38253 2.50754 6.9857C2.44009 6.78663 2.83079 6.22741 3.10695 6.13966C4.06781 5.8332 5.06302 5.50317 6.05315 5.47697C7.55106 5.43638 9.05534 5.64592 10.5571 5.73891C10.7711 5.75491 10.9862 5.73366 11.1934 5.67604C10.1575 4.89025 8.95989 4.62047 7.61342 4.50914C8.77154 3.3095 10.2122 2.82231 11.6006 2.15176H9.27422C9.72315 1.81095 10.2358 1.56948 10.7799 1.44258C11.3239 1.31568 11.8876 1.3061 12.4355 1.41443C13.4689 1.59778 14.4717 1.92781 15.598 2.21986L13.9436 0C14.389 0.178113 14.669 0.272408 14.9337 0.392897C17.2856 1.50872 19.7953 1.83352 22.3444 2.03651C23.8023 2.13128 25.2538 2.31187 26.6918 2.5774C29.5539 3.14317 31.8931 5.77558 32.2914 8.73278C32.6083 11.1046 31.3573 13.2655 28.8476 14.397C26.9094 15.2706 24.9024 15.6098 22.7936 14.8397C22.1891 14.6184 21.4064 14.7585 20.7396 14.9C19.5191 15.1619 18.4259 15.1501 17.2487 14.5175C16.4851 14.1115 15.4759 14.1246 14.5761 14.1115C12.8466 14.0827 11.117 14.1692 9.31114 14.2085C9.01333 13.1935 8.69772 12.0122 7.64396 11.2133C7.85777 12.2518 8.0614 13.2445 8.26629 14.2412C6.03788 14.6446 4.95739 15.9608 4.73086 18.4884C4.62269 19.6815 4.57686 20.8838 4.56541 22.0821C4.56541 22.5903 4.69268 23.1063 4.80467 23.6079C5.11392 24.966 5.21192 26.2926 4.64431 27.6285C4.40251 28.1969 4.34525 28.8491 4.19635 29.5H3.39458C3.2864 28.54 3.1744 27.5735 3.07004 26.6057C2.97078 25.6732 2.89315 24.7381 2.77734 23.8082C2.73279 23.5301 2.64694 23.2606 2.52281 23.0093C2.0532 21.9839 1.52377 20.9872 1.09743 19.9434C0.37202 18.1636 0.0309619 16.3497 0.967634 14.5175Z" fill="white"/>
<path d="M28.9673 15.4749C30.4944 14.6328 31.8142 15.0493 32.546 16.5318C33.0919 17.6358 33.2815 18.6901 32.6134 19.874C32.2711 20.4778 32.2138 21.2845 32.1425 22.0114C31.9936 23.524 31.9173 25.0459 31.818 26.5638C31.7582 27.453 31.7111 28.3449 31.5762 29.2669C31.4884 28.912 31.3471 28.5623 31.3217 28.2034C31.1817 26.3568 31.1053 24.5063 30.9399 22.6636C30.8533 21.7377 30.6242 20.8301 30.4308 19.9133C30.231 18.9808 30.0108 18.0523 29.7601 17.1329C29.6324 16.7446 29.4736 16.3679 29.2854 16.0066C29.1887 15.8154 29.0716 15.6465 28.9673 15.4749Z" fill="white"/>
</svg>
