<svg width="9" height="33" viewBox="0 0 9 33" fill="none" xmlns="http://www.w3.org/2000/svg">
<path d="M0.127372 18.7948C2.01014 20.497 5.85755 20.7699 8.35327 18.819C8.39471 18.9458 8.42281 19.0765 8.43712 19.2092C8.43712 22.8482 8.4511 26.4871 8.43712 30.126C8.43712 31.5836 7.22322 32.1679 6.21295 32.3701C4.35014 32.7421 2.34557 33.017 0.726344 31.527C0.37295 31.2036 0.0395255 30.6375 0.0315391 30.1786C-0.0203719 26.475 0.00559134 22.7693 0.0135776 19.0596C0.0115811 19.001 0.0574918 18.9444 0.127372 18.7948Z" fill="white"/>
<path d="M6.24688 11.4421C4.91716 13.0594 3.5515 13.0493 2.21179 11.4421C2.21179 9.19201 2.11597 6.86712 2.24574 4.55639C2.32561 3.0578 2.93175 1.63742 3.95481 0.551511C4.75344 -0.307685 5.50415 -0.160088 5.89148 0.974051C6.10658 1.61024 6.22113 2.27683 6.2309 2.94919C6.26085 5.78353 6.24688 8.6118 6.24688 11.4421ZM3.27198 4.47149C4.5418 4.0793 5.44825 2.05765 4.88721 0.872969C3.5535 1.09131 2.61311 3.18371 3.26599 4.47149H3.27198Z" fill="white"/>
<path d="M1.13365 18.0063V12.5782C2.1579 12.9826 3.16217 13.5769 4.23433 13.771C5.43228 13.9853 6.36069 13.1989 7.25915 12.1537V18.0063C5.85955 19.2759 2.77683 19.3083 1.13365 18.0063Z" fill="white"/>
</svg>
