<svg width="25" height="37" viewBox="0 0 25 37" fill="none" xmlns="http://www.w3.org/2000/svg">
<path d="M13.1974 19.1459C15.4595 19.247 18.2408 19.7241 20.425 21.8124C22.5574 23.8522 22.3397 26.4864 19.9898 28.2816C17.5939 30.1173 14.7987 30.649 11.8956 30.5438C9.47579 30.4549 7.16176 29.8868 5.16917 28.3686C2.37397 26.2378 2.46182 23.1285 5.3888 21.1291C7.29154 19.8332 9.75731 19.1519 13.1974 19.1459Z" fill="white"/>
<path d="M6.15548 19.2914L4.6321 20.187C1.70911 18.2018 0.183719 12.7737 1.35771 8.61313C2.77328 3.59947 7.02998 0.225395 12.2111 0.0090802C17.1426 -0.193083 21.6849 2.99704 23.4738 7.92579C24.9772 12.0661 23.6255 17.6559 20.447 20.2032L18.8497 19.2874C21.4632 16.7442 22.6432 13.734 22.0902 10.1455C21.7654 7.81409 20.5707 5.69723 18.7519 4.23023C14.6469 0.90262 9.09644 1.23215 5.60642 4.83673C2.2961 8.26138 1.35771 14.6053 6.15548 19.2914Z" fill="white"/>
<path d="M22.8529 23.1325C25.4684 25.2836 25.5682 28.6658 23.5277 31.6457C20.0896 36.6654 15.216 37.4619 9.79325 36.7988C6.98607 36.4551 4.43044 35.3837 2.60557 33.0932C1.69932 31.982 0.945763 30.7518 0.365409 29.436C-0.555013 27.2688 0.339456 24.5355 2.19627 23.1689C2.03455 24.392 1.83489 25.6131 1.72508 26.8402C1.52542 29.1429 2.70141 30.7622 4.42245 32.0298C6.85429 33.8189 9.64351 34.4416 12.6084 34.4254C15.5733 34.4093 18.3506 33.7623 20.7545 31.9206C22.767 30.3801 23.8072 28.4333 23.1503 25.7809C22.9327 24.952 22.9447 24.0665 22.8529 23.1325Z" fill="white"/>
<path d="M21.0539 29.0236C20.5308 30.3073 19.3868 30.8936 18.2587 31.3808C14.1158 33.1639 9.98491 33.0992 5.97778 30.9522C5.14122 30.5014 4.46638 29.7392 3.78155 29.0317C8.26986 32.0884 13.0337 32.5048 18.0251 30.7015C19.0993 30.3134 20.0596 29.6058 21.0719 29.0438L21.0539 29.0236Z" fill="white"/>
<path d="M17.9912 13.6571L17.0867 14.2495L12.87 5.39268L13.9661 5.19051C15.3078 8.0208 16.6275 10.8005 17.9912 13.6571Z" fill="white"/>
<path d="M15.5095 16.9544L11.3805 8.31596C11.5159 8.21791 11.6604 8.13329 11.8118 8.06325C12.004 8.02099 12.1988 7.99129 12.3948 7.97431C12.8879 9.00332 13.3771 10.0242 13.8643 11.0452C14.615 12.618 15.3877 14.1828 16.0944 15.7758C16.2302 16.0831 16.1064 16.5076 16.0944 16.8776L15.5095 16.9544Z" fill="white"/>
<path d="M21.0719 29.0438L21.3934 28.9265C21.3934 28.9265 21.3734 28.9144 21.3794 28.9265C21.2736 28.965 21.1638 28.9993 21.0539 29.0337L21.0719 29.0438Z" fill="white"/>
</svg>
