<svg width="17" height="40" viewBox="0 0 17 40" fill="none" xmlns="http://www.w3.org/2000/svg">
<path d="M8.74918 23.3824C8.74277 23.2506 8.73578 23.1188 8.72761 22.9518L8.3353 22.9328C8.29974 23.1406 8.26943 23.3167 8.2397 23.4929C8.2397 23.7018 8.23562 23.9107 8.23329 24.1202C8.175 24.526 8.1167 24.9317 8.05841 25.3381C7.93366 26.2647 7.82057 27.1931 7.68533 28.1186C7.57341 28.8829 7.43643 29.6443 7.31109 30.4069L7.30235 31.0786C7.43642 31.8671 7.43584 32.6625 7.41019 33.4573C7.39037 34.0691 7.33557 34.6798 7.30643 35.2911C7.28602 35.7158 7.37463 36.1273 7.47548 36.5394C7.58449 36.9855 7.63928 37.4442 7.74188 37.892C7.84272 38.33 7.97505 38.7599 8.09163 39.195C8.13563 39.351 8.16279 39.5111 8.17266 39.6727C8.17966 39.8707 8.0689 40.0042 7.87654 39.987C7.20791 39.9265 6.52064 39.9812 5.88757 39.7078C5.75233 39.5651 5.77506 39.3964 5.80304 39.2387C5.82785 39.0582 5.87788 38.882 5.9517 38.715C6.39822 37.8246 6.27872 36.9227 6.00591 36.0266C5.65615 34.8807 5.22769 33.7578 5.02483 32.5733C5.01126 32.5175 4.99393 32.4627 4.97295 32.4093V31.2553C5.08954 30.8524 5.21837 30.4495 5.32271 30.0466C5.35477 29.9235 5.33379 29.7842 5.32621 29.653C5.306 29.3103 5.28191 28.9683 5.25393 28.6268C5.24351 28.5419 5.22873 28.4575 5.20962 28.3741C5.2069 28.1281 5.20438 27.8822 5.20205 27.6362C5.02717 26.6365 4.83713 25.6391 4.6809 24.6365C4.53342 23.6903 4.40285 22.7412 4.30025 21.7892C4.23662 21.1974 4.25741 20.5997 4.36204 20.0136C4.52092 19.1361 4.76213 18.275 5.08254 17.4415C5.11703 17.3628 5.13678 17.2786 5.14084 17.1929C5.12918 16.1788 5.11305 15.1647 5.09246 14.1505C5.08169 13.9793 5.06224 13.8087 5.03416 13.6394C5.02833 13.4927 5.02308 13.3459 5.01725 13.1997C5.01259 13.1099 5.00793 13.0207 5.00094 12.8901C4.82023 13.0155 4.78059 13.1629 4.73745 13.3068C4.57365 13.8524 4.52701 14.4176 4.50428 14.9799C4.47796 15.5258 4.35853 16.0635 4.15102 16.5702C3.8618 17.2909 3.5229 17.9913 3.13672 18.6663C2.96184 18.9783 2.87731 19.3403 2.7514 19.6798C2.65669 19.9484 2.65669 20.2407 2.7514 20.5092L2.70244 20.9668L2.69194 21.4756C2.6727 21.6736 2.64531 21.8721 2.63365 22.0707C2.62199 22.2692 2.64065 22.4736 2.63015 22.6727C2.62549 22.7711 2.58469 22.8672 2.55088 23.0002C2.30022 22.8379 2.32236 22.5737 2.19121 22.3671C2.02157 22.7268 2.22385 23.1475 1.89974 23.4842L1.70679 23.1965C1.70291 22.9121 1.69863 22.6278 1.69396 22.3435L1.65083 22.0488L1.55523 22.054C1.54706 22.1864 1.53832 22.3193 1.53016 22.4517C1.48644 22.7044 1.44622 22.9576 1.39725 23.2091C1.37394 23.3242 1.36344 23.4589 1.18448 23.5153L1.0679 23.3058C1.0644 22.9789 1.08422 22.6508 1.05741 22.3274L0.990952 22.3239L0.940237 22.4505L0.536262 23.0261H0.419676C0.401605 23.0065 0.384122 22.9864 0.366635 22.9685C0.366635 22.8563 0.366635 22.7435 0.366635 22.6307C0.522083 22.1514 0.677531 21.6718 0.83298 21.1918L0.75953 21.1498C0.669175 21.2597 0.584647 21.3754 0.486715 21.4779C0.388782 21.5803 0.293766 21.7242 0.102565 21.715C-0.050163 21.5682 -0.00703012 21.391 0.0693339 21.2419C0.237099 20.9084 0.422535 20.584 0.624869 20.2698C0.819568 19.9739 1.04633 19.6988 1.26609 19.4191C1.52063 19.0905 1.67475 18.6969 1.71029 18.2847C1.75342 17.8674 1.81405 17.4513 1.86768 17.0352C1.87118 16.8263 1.87526 16.6179 1.87934 16.409C1.90266 16.3169 1.92889 16.2248 1.94987 16.1316C2.05713 15.6458 2.17255 15.1658 2.4203 14.722C2.54913 14.4918 2.62316 14.2265 2.70127 13.971C3.0213 12.924 3.0656 11.8478 3.03704 10.7646L3.04695 8.81578C3.16354 8.46124 3.25389 8.09748 3.39671 7.75503C3.65203 7.1507 4.13878 6.81918 4.78408 6.69543C5.16474 6.62292 5.54598 6.54636 5.91905 6.44507C6.11318 6.38462 6.29885 6.30032 6.47167 6.19413C6.63647 6.10868 6.77327 5.97876 6.86615 5.81949C6.95904 5.66023 7.00418 5.47818 6.99631 5.29456V4.79151C7.01137 4.57899 6.94499 4.36865 6.81035 4.20216C6.74565 4.12274 6.72 4.0128 6.67045 3.91956C6.58315 3.74017 6.48585 3.5657 6.37898 3.39696C6.23208 3.18113 6.18603 3.05681 6.22684 2.78055C6.47691 2.6522 6.4571 2.42717 6.44719 2.15781C6.41687 1.35722 6.70834 0.697642 7.45041 0.287275C8.14235 -0.09489 8.83021 -0.095469 9.52739 0.283818C10.1401 0.617637 10.4723 1.11608 10.5021 1.80731C10.5181 1.98687 10.5192 2.16742 10.5056 2.34717C10.4782 2.5676 10.628 2.67465 10.7527 2.79724C10.8402 3.05681 10.6944 3.24503 10.5778 3.44302C10.4916 3.59036 10.4117 3.74114 10.3336 3.89309C10.2858 3.9869 10.2642 4.09913 10.2001 4.18086C10.0532 4.36331 10.0077 4.57396 9.97858 4.79382V5.29627C10.0066 5.81714 10.3021 6.1596 10.7737 6.32594C11.2304 6.48044 11.698 6.60145 12.1727 6.68796C12.8215 6.8117 13.3036 7.14148 13.5764 7.72912C13.728 8.05661 13.8149 8.41288 13.9314 8.75648C13.9346 9.42604 13.9373 10.0952 13.9396 10.764C13.9297 11.5122 13.9244 12.2604 14.062 12.9994C14.1786 13.6285 14.308 14.2582 14.6164 14.8366C14.9248 15.415 15.0466 16.0372 15.1002 16.6858C15.1539 17.3345 15.2384 18.0004 15.3532 18.6502C15.4372 19.125 15.7613 19.4887 16.0568 19.8588C16.4118 20.3055 16.7266 20.7768 16.9423 21.3063C17.0006 21.4496 17.0589 21.5981 16.8793 21.7248C16.5447 21.6902 16.4713 21.3518 16.1944 21.1924C16.1998 21.2768 16.2119 21.3607 16.2305 21.4433C16.3197 21.7374 16.4246 22.0263 16.5092 22.3216C16.5675 22.5357 16.666 22.7544 16.5511 22.9841C16.3797 23.0071 16.318 22.8966 16.2509 22.7907C16.1839 22.6848 16.1075 22.5656 16.0358 22.4534C16.0358 22.4356 16.0323 22.4172 16.0294 22.3993L15.9426 22.1461L15.8883 22.1587C15.8982 22.2387 15.9076 22.3187 15.9169 22.3982C15.9169 22.7631 15.915 23.1276 15.9111 23.4917C15.6942 23.4975 15.6313 23.4606 15.5893 23.2356C15.531 22.9294 15.496 22.6192 15.4506 22.3107C15.444 22.243 15.4135 22.1798 15.3643 22.1322L15.278 22.4016L15.271 23.2609L15.1049 23.4825C14.747 23.1809 14.9644 22.7556 14.807 22.4091C14.6321 22.5766 14.698 22.8563 14.466 22.9846C14.3463 22.762 14.3088 22.5052 14.3599 22.2583C14.4077 21.9671 14.3529 21.6902 14.2899 21.4111L14.28 20.9046C14.28 20.7647 14.276 20.6255 14.2736 20.4856V19.7023C14.15 19.1118 13.8248 18.6087 13.5455 18.0908C13.1258 17.304 12.7434 16.5017 12.5616 15.6217C12.5393 15.5388 12.5117 15.4575 12.4788 15.3782C12.459 15.1437 12.4395 14.9099 12.4205 14.6766C12.4444 13.9048 12.3091 13.2458 12.0369 12.9448C12.0054 13.0645 11.9786 13.1583 11.9559 13.2515L11.9471 13.8749C11.9116 14.1494 11.8504 14.4239 11.8445 14.699C11.8282 15.4281 11.8269 16.1571 11.8405 16.8861C11.847 17.1146 11.8883 17.3408 11.9629 17.5572C12.2701 18.4568 12.5703 19.3604 12.6735 20.3078C12.7261 20.7938 12.731 21.2838 12.6881 21.7708C12.6082 22.6566 12.4939 23.5406 12.361 24.4183C12.2281 25.2961 12.0486 26.1715 11.9023 27.0497C11.844 27.4169 11.8043 27.7887 11.7728 28.16C11.7303 28.6561 11.725 29.1557 11.6633 29.6489C11.6236 29.9632 11.7163 30.2418 11.8125 30.5169C12.0981 31.3341 12.0911 32.1664 11.8865 32.9819C11.6306 34.003 11.2966 35.0056 10.9946 36.0157C10.7953 36.6827 10.6612 37.3636 10.8198 38.0514C10.9107 38.4491 11.1013 38.8238 11.247 39.2094L11.2418 39.6698C10.8418 39.8434 10.4103 39.9351 9.97334 39.9392C9.73317 39.9392 9.49359 39.9766 9.25342 39.9967C8.92406 40.0244 8.78708 39.8764 8.83896 39.5507C8.85207 39.4173 8.87982 39.2857 8.92173 39.1582C9.18988 38.5015 9.26507 37.8033 9.39623 37.1167C9.44112 36.8813 9.4965 36.6476 9.55071 36.4139C9.7116 35.717 9.76932 35.0159 9.62708 34.308L9.61309 33.8648C9.55013 32.9745 9.51457 32.0875 9.69411 31.2018C9.74334 30.9186 9.74452 30.6294 9.69761 30.3459C9.61484 29.7773 9.4726 29.2173 9.3875 28.6486C9.22136 27.5407 9.07796 26.4287 8.92465 25.3185C8.86713 24.9018 8.80884 24.4855 8.74977 24.0696L8.74918 23.3824Z" fill="white"/>
</svg>
