<svg width="28" height="35" viewBox="0 0 28 35" fill="none" xmlns="http://www.w3.org/2000/svg">
<path d="M11.7964 16.9757C12.6175 19.1245 12.5301 21.3606 10.0669 22.2516C5.00062 24.1208 3.86508 19.2118 3.7952 18.9672L11.7964 16.9757ZM3.00906 15.5606L10.556 13.6913C10.2241 11.857 10.7307 10.0227 10.7307 7.85639C10.7307 4.92146 8.40724 -0.826128 4.70363 0.0997745C0.475926 1.14797 -0.135519 5.84736 0.02171 8.11844C0.231348 10.3895 2.88677 15.2461 3.00906 15.5606ZM24.2175 31.1787C24.1651 31.4407 23.012 36.3323 17.9458 34.4805C15.5 33.572 15.3952 31.3359 16.2163 29.1871L24.2175 31.1787ZM27.9735 20.3473C28.1482 18.0763 27.5542 13.3594 23.309 12.3112C19.6229 11.3504 17.2994 17.1329 17.2994 20.0853C17.2994 22.2341 17.7886 24.0684 17.4916 25.9028L25.0036 27.772C25.1434 27.4576 27.7813 22.601 27.9735 20.3473Z" fill="white" fill-opacity="0.1"/>
</svg>
