<svg width="15" height="16" viewBox="0 0 15 16" fill="none" xmlns="http://www.w3.org/2000/svg">
<path d="M14.9913 4.57244C14.8652 6.82803 14.4661 9.02368 13.3685 11.0666C12.1984 13.2452 10.4199 14.7728 7.87865 15.4591C7.62901 15.5231 7.36545 15.5231 7.11582 15.4591C4.18049 14.6612 2.32448 12.7887 1.20734 10.2152C0.30455 8.1359 -0.00436656 5.95258 4.65193e-05 3.72402C4.65193e-05 3.27631 0.274919 3.02602 0.79314 2.97608C2.10154 2.85599 3.37693 2.52164 4.56064 1.98841C5.40669 1.60475 6.21492 1.14529 7.02503 0.695815C7.46067 0.454334 7.54136 0.433186 7.95808 0.698756C9.74916 1.83918 11.6821 2.6782 13.8495 2.92614C14.9541 3.05246 15.0316 3.35857 14.9925 4.21874C14.9869 4.33742 14.9913 4.45493 14.9913 4.57244Z" fill="white"/>
</svg>
