<svg width="19" height="17" viewBox="0 0 19 17" fill="none" xmlns="http://www.w3.org/2000/svg">
<path fill-rule="evenodd" clip-rule="evenodd" d="M12.7686 1.83784C11.3159 -0.612614 7.6841 -0.612614 6.23138 1.83784L0.511288 11.4865C-0.941432 13.9369 0.874468 17 3.77991 17H15.2201C18.1255 17 19.9414 13.9369 18.4887 11.4865L12.7686 1.83784ZM10.3599 10.7505L10.6574 4.04325H7.90569L8.20317 10.7505H10.3599ZM8.21805 13.9711C8.50561 14.2138 8.8725 14.3351 9.31872 14.3351C9.75503 14.3351 10.112 14.2138 10.3897 13.9711C10.6772 13.719 10.821 13.411 10.821 13.0469C10.821 12.6735 10.6772 12.3608 10.3897 12.1087C10.112 11.8567 9.75503 11.7307 9.31872 11.7307C8.8725 11.7307 8.50561 11.8567 8.21805 12.1087C7.9404 12.3608 7.80157 12.6735 7.80157 13.0469C7.80157 13.411 7.9404 13.719 8.21805 13.9711Z" fill="#141415"/>
</svg>
