<svg width="36" height="36" viewBox="0 0 36 36" fill="none" xmlns="http://www.w3.org/2000/svg">
<path fill-rule="evenodd" clip-rule="evenodd" d="M26.0709 0C25.8749 0.524137 25.6317 1.02524 25.3465 1.49815L30.6571 4.56424C32.8945 5.85599 34.2728 8.24325 34.2728 10.8268L34.2728 21.306C34.2728 23.8895 32.8945 26.2767 30.6571 27.5685L21.5819 32.8081C19.3445 34.0998 16.5879 34.0998 14.3506 32.8081L5.27531 27.5685C3.03793 26.2767 1.65965 23.8894 1.65965 21.3059L1.65965 10.8267C1.65965 8.24324 3.03793 5.85599 5.27532 4.56424L10.0332 1.81726C9.72893 1.35722 9.46553 0.867776 9.2482 0.354094L4.44549 3.12694C1.69461 4.71516 1.19381e-06 7.65031 9.16119e-07 10.8267L0 21.3059C-2.77694e-07 24.4824 1.69461 27.4175 4.44548 29.0058L13.5207 34.2454C16.2716 35.8336 19.6608 35.8336 22.4117 34.2454L31.487 29.0058C34.2378 27.4175 35.9325 24.4824 35.9325 21.306L35.9325 10.8268C35.9325 7.65031 34.2378 4.71516 31.487 3.12694L26.0709 0Z" fill="#4D8CFF"/>
</svg>
