<svg width="16" height="15" viewBox="0 0 16 15" fill="none" xmlns="http://www.w3.org/2000/svg">
<path d="M0 3.35635C0 2.30663 0.310817 1.48481 0.93245 0.890884C1.56821 0.296961 2.38057 0 3.36954 0C4.3585 0 5.1638 0.296961 5.78543 0.890884C6.42119 1.48481 6.73907 2.30663 6.73907 3.35635C6.73907 4.41989 6.42119 5.24862 5.78543 5.84254C5.1638 6.43646 4.3585 6.73343 3.36954 6.73343C2.38057 6.73343 1.56821 6.43646 0.93245 5.84254C0.310817 5.24862 0 4.41989 0 3.35635ZM13.6053 0.248618L5.27682 14.7514H2.3947L10.702 0.248618H13.6053ZM3.34834 1.74033C2.5713 1.74033 2.18278 2.27901 2.18278 3.35635C2.18278 4.44751 2.5713 4.99309 3.34834 4.99309C3.7298 4.99309 4.02649 4.86188 4.23841 4.59945C4.45033 4.3232 4.55629 3.90884 4.55629 3.35635C4.55629 2.27901 4.15364 1.74033 3.34834 1.74033ZM9.30331 11.6229C9.30331 10.5594 9.61413 9.73757 10.2358 9.15746C10.8715 8.56354 11.6839 8.26657 12.6728 8.26657C13.6618 8.26657 14.46 8.56354 15.0676 9.15746C15.6892 9.73757 16 10.5594 16 11.6229C16 12.6865 15.6892 13.5152 15.0676 14.1091C14.46 14.703 13.6618 15 12.6728 15C11.6698 15 10.8574 14.703 10.2358 14.1091C9.61413 13.5152 9.30331 12.6865 9.30331 11.6229ZM12.6517 10.0069C11.8464 10.0069 11.4437 10.5456 11.4437 11.6229C11.4437 12.7141 11.8464 13.2597 12.6517 13.2597C13.4428 13.2597 13.8384 12.7141 13.8384 11.6229C13.8384 10.5456 13.4428 10.0069 12.6517 10.0069Z" fill="#4D8CFF"/>
</svg>
