<svg width="11" height="12" viewBox="0 0 11 12" fill="none" xmlns="http://www.w3.org/2000/svg">
<path d="M9.625 0.875H8.3125V0.4375C8.3125 0.321468 8.26641 0.210188 8.18436 0.128141C8.10231 0.0460936 7.99103 0 7.875 0C7.75897 0 7.64769 0.0460936 7.56564 0.128141C7.48359 0.210188 7.4375 0.321468 7.4375 0.4375V0.875H3.0625V0.4375C3.0625 0.321468 3.01641 0.210188 2.93436 0.128141C2.85231 0.0460936 2.74103 0 2.625 0C2.50897 0 2.39769 0.0460936 2.31564 0.128141C2.23359 0.210188 2.1875 0.321468 2.1875 0.4375V0.875H0.875C0.642936 0.875 0.420376 0.967187 0.256282 1.13128C0.0921872 1.29538 0 1.51794 0 1.75V10.5C0 10.7321 0.0921872 10.9546 0.256282 11.1187C0.420376 11.2828 0.642936 11.375 0.875 11.375H9.625C9.85706 11.375 10.0796 11.2828 10.2437 11.1187C10.4078 10.9546 10.5 10.7321 10.5 10.5V1.75C10.5 1.51794 10.4078 1.29538 10.2437 1.13128C10.0796 0.967187 9.85706 0.875 9.625 0.875ZM9.625 3.5H0.875V1.75H2.1875V2.1875C2.1875 2.30353 2.23359 2.41481 2.31564 2.49686C2.39769 2.57891 2.50897 2.625 2.625 2.625C2.74103 2.625 2.85231 2.57891 2.93436 2.49686C3.01641 2.41481 3.0625 2.30353 3.0625 2.1875V1.75H7.4375V2.1875C7.4375 2.30353 7.48359 2.41481 7.56564 2.49686C7.64769 2.57891 7.75897 2.625 7.875 2.625C7.99103 2.625 8.10231 2.57891 8.18436 2.49686C8.26641 2.41481 8.3125 2.30353 8.3125 2.1875V1.75H9.625V3.5Z" fill="white" fill-opacity="0.75"/>
</svg>
