<svg width="14" height="11" viewBox="0 0 14 11" fill="none" xmlns="http://www.w3.org/2000/svg">
<path d="M10.5058 8.80079L10.2286 8.58507C7.94476 9.5738 5.66238 9.64571 3.3609 8.58507L3.09001 8.79288C3.30219 8.91225 3.48396 9.01795 3.66786 9.11215C3.85175 9.20635 4.02715 9.28185 4.24216 9.3818L3.5165 10.5611C2.27735 10.1835 1.11229 9.58957 0.073475 8.80582C-0.0882826 7.40817 0.0176362 5.9919 0.385384 4.63517C0.723503 3.38686 1.25932 2.20286 1.97181 1.12967C2.03037 1.02848 2.11799 0.947936 2.22289 0.898847C3.08506 0.59252 3.95289 0.301294 4.83062 0.00071978L5.22457 0.753592H8.35922L8.74752 0C9.62808 0.301293 10.5044 0.598989 11.3772 0.905316C11.4627 0.942224 11.5352 1.00466 11.5851 1.08437C13.1008 3.4113 13.7975 5.95324 13.5181 8.7483C13.5134 8.77293 13.5063 8.79701 13.4969 8.82021C12.4648 9.60274 11.304 10.1922 10.0687 10.5611L9.3487 9.39762L10.5058 8.80079ZM5.74866 5.81518C5.74088 5.04001 5.19062 4.44318 4.49679 4.459C3.83902 4.4741 3.3121 5.10041 3.32129 5.85688C3.33049 6.61335 3.87862 7.22673 4.5371 7.2145C5.22669 7.20443 5.75574 6.59322 5.74866 5.81518ZM10.2625 5.82381C10.2625 5.0623 9.72356 4.45756 9.0467 4.45756C8.36983 4.45756 7.83725 5.06518 7.83725 5.82381C7.83725 6.59753 8.3564 7.19724 9.03255 7.20659C9.70871 7.21594 10.2639 6.60617 10.2625 5.82669V5.82381Z" fill="white"/>
</svg>
