<svg width="22" height="23" viewBox="0 0 22 23" fill="none" xmlns="http://www.w3.org/2000/svg">
<path fill-rule="evenodd" clip-rule="evenodd" d="M1.77174 22.0665C1.36581 22.1471 0.959772 22.2278 0.553085 22.3067C0.302059 22.3559 0.156193 22.2576 0.209621 21.9938C0.370188 21.1486 0.538103 20.3045 0.713369 19.4615C0.782911 19.1274 0.999165 18.9739 1.34772 18.9577C2.00412 18.9264 2.67494 18.3336 2.77925 17.6857C2.81995 17.4338 2.91579 17.3278 3.17021 17.2854C3.77827 17.1844 3.93007 16.9784 3.91226 16.3796C3.89869 15.9531 4.137 15.7385 4.57714 15.7775C5.11312 15.8225 5.37941 15.5434 5.38534 15.0143C5.39009 14.7842 5.4699 14.5621 5.61262 14.3816C5.8186 14.1402 6.05477 13.9243 6.30848 13.6924C6.41307 13.5968 6.52064 13.4984 6.6303 13.3945C6.44342 13.2089 6.26369 13.0349 6.08982 12.8666C5.8037 12.5897 5.53346 12.3281 5.2734 12.0554C4.35664 11.0937 4.25488 9.64093 5.06817 8.6046C6.91638 6.24812 8.77985 3.9038 10.6586 1.57163C11.5092 0.51494 12.9416 0.317343 14.0915 1.05346C14.4446 1.27945 14.7932 1.51165 15.1419 1.74382C15.4984 1.98126 15.8549 2.21868 16.2159 2.44937C17.4258 3.21281 18.4886 4.18746 19.3538 5.32685C20.0079 6.19574 20.6033 7.11024 21.1972 8.02238C21.281 8.15096 21.3647 8.2795 21.4485 8.40785C22.2262 9.59938 21.9904 11.0326 20.8693 11.9282C18.5948 13.7402 16.3169 15.5494 14.0356 17.3558C12.8695 18.2784 11.4185 18.1928 10.3584 17.1437C10.0844 16.8732 9.81867 16.5944 9.53939 16.3013C9.40982 16.1653 9.27732 16.0262 9.13971 15.8835C9.03006 15.9965 8.92585 16.1075 8.82426 16.2157C8.58797 16.4673 8.36579 16.7039 8.12204 16.9156C7.95387 17.0525 7.74517 17.1301 7.5284 17.1361C6.96443 17.137 6.70069 17.3863 6.74479 17.957C6.77701 18.3878 6.55482 18.6202 6.12316 18.6033C5.5804 18.5829 5.32343 18.7559 5.24626 19.2817C5.20046 19.5887 5.08683 19.7083 4.77644 19.7515C4.21332 19.8304 3.56455 20.5538 3.56455 21.1025C3.56286 21.5359 3.36695 21.7538 2.96158 21.8318C2.56472 21.9089 2.16828 21.9877 1.77174 22.0665ZM11.694 15.9019L6.73533 10.9498L10.4386 7.25756L11.0816 8.05406C11.1279 8.01063 11.168 7.97346 11.2039 7.94025C11.2721 7.87699 11.3248 7.82812 11.3758 7.77784C11.6412 7.51511 11.7086 7.4416 11.7484 7.39822C11.8022 7.33963 11.8055 7.33599 12.1782 6.99536C12.6428 6.56453 13.2577 6.33198 13.8917 6.34739C14.5258 6.36279 15.1287 6.62493 15.5716 7.07782C16.0209 7.52378 16.2786 8.12667 16.2902 8.75887C16.3017 9.39107 16.0663 10.0029 15.6336 10.465C15.389 10.7331 15.1284 10.9867 14.8614 11.2465C14.7565 11.3486 14.6506 11.4516 14.5443 11.5569L15.2931 12.2987L11.694 15.9019ZM13.6134 10.6345L11.9642 9.00061C12.3152 8.64106 12.4213 8.51831 12.499 8.4284C12.5922 8.32059 12.6446 8.26 13.0295 7.89492C13.5055 7.44391 14.2187 7.49091 14.6749 7.93038C14.9045 8.14325 15.0407 8.43783 15.054 8.75024C15.0673 9.06264 14.9566 9.36769 14.746 9.59922C14.4921 9.87632 14.2054 10.1227 13.9229 10.3655C13.8186 10.4552 13.7148 10.5445 13.6134 10.6345Z" fill="white"/>
</svg>
