<svg width="16" height="16" viewBox="0 0 16 16" fill="none" xmlns="http://www.w3.org/2000/svg">
<path d="M8.72143 14.0337C9.53401 13.713 10.1135 13.2066 10.3415 12.3932C10.4066 12.1529 10.4392 11.9056 10.4386 11.6575C10.4461 9.627 10.426 7.59653 10.4505 5.56605C10.4612 4.67025 9.72298 4.3191 8.98221 4.63621C7.75263 5.16234 6.48967 5.6186 5.23993 6.10233C5.13518 6.14583 5.02607 6.17925 4.91427 6.20207C4.11807 6.35017 3.708 7.02501 3.9965 7.75478C4.38263 8.73001 4.799 9.69389 5.17883 10.6709C5.39111 11.2173 5.57126 11.7763 5.73882 12.3371C5.987 13.1702 6.54573 13.7077 7.38603 14.0272C6.51297 14.0272 5.63929 14.0331 4.76561 14.0176C4.68499 14.0176 4.60247 13.8791 4.53129 13.7972C4.50987 13.7728 4.51806 13.719 4.52436 13.6778C4.64467 12.8889 4.34295 12.2117 3.96563 11.5279C3.17762 10.1024 2.44378 8.65058 1.67466 7.21611C1.5701 7.02083 1.58773 6.90975 1.74962 6.75686C2.99054 5.58576 4.21759 4.40092 5.45914 3.22802C5.63048 3.06558 5.70669 2.90135 5.68969 2.6768C5.67866 2.46811 5.67866 2.25903 5.68969 2.05034C5.69662 1.83774 5.8037 1.72546 6.04432 1.72666C7.38812 1.73104 8.73193 1.73104 10.0757 1.72666C10.3025 1.72666 10.3976 1.83774 10.4165 2.03422C10.4209 2.06373 10.4209 2.09368 10.4165 2.1232C10.2571 2.80401 10.6269 3.24354 11.1201 3.68428C12.2004 4.65652 13.2322 5.67773 14.2955 6.67027C14.5071 6.86675 14.5474 7.01784 14.4044 7.2818C13.5314 8.90081 12.7037 10.5401 11.813 12.1508C11.561 12.6106 11.5894 13.0681 11.5825 13.5393C11.5749 14.0296 11.5673 14.0397 11.0527 14.0379C10.2735 14.0313 9.49747 14.0337 8.72143 14.0337Z" fill="white"/>
<path d="M5.90654 10.8267C5.57143 10.0098 5.26214 9.24894 4.94719 8.47796C6.2196 8.43018 6.66558 7.2758 5.91599 6.47555L8.59561 5.43045C8.89797 6.09274 9.19024 6.2737 9.79558 6.18352V10.2612C9.19087 9.75238 8.53199 9.46154 7.73075 9.57859C6.92951 9.69565 6.34621 10.1083 5.90654 10.8267Z" fill="white"/>
<path d="M12.9613 4.59071L12.2211 3.88661C12.2841 3.89259 12.3673 3.92543 12.4013 3.89915C12.5084 3.81674 12.6457 3.72358 12.674 3.6125C12.6917 3.54382 12.5273 3.3569 12.4529 3.36108C12.327 3.36765 12.1972 3.47096 12.0983 3.56233C12.0586 3.59876 12.0983 3.71044 12.0983 3.78808L11.0993 2.89228C11.3834 2.62115 11.607 2.37212 11.8684 2.16728C12.0285 2.04179 12.2325 1.97791 12.4399 1.98831C12.6474 1.9987 12.8431 2.08262 12.9884 2.22341C13.5687 2.75572 14.139 3.29718 14.6992 3.8478C14.8532 4.00058 14.9392 4.20379 14.9392 4.41513C14.9392 4.62648 14.8532 4.82968 14.6992 4.98247C14.4964 5.19567 14.2715 5.38976 14.034 5.61371L13.0419 4.66417C13.263 4.75195 13.4564 4.70478 13.5118 4.48501C13.5351 4.39184 13.4224 4.24254 13.3298 4.16073C13.2851 4.12071 13.086 4.14639 13.0602 4.19357C12.9953 4.31003 12.9903 4.45634 12.9613 4.59071Z" fill="white"/>
<path d="M3.8907 3.88188L3.14363 4.59493C3.11591 4.46056 3.11276 4.31425 3.04977 4.1966C3.02395 4.14823 2.82238 4.11717 2.78458 4.1548C2.69136 4.24617 2.57293 4.39965 2.59561 4.49759C2.6523 4.72154 2.85828 4.74065 3.06993 4.66421L2.02617 5.59285C1.79752 5.36293 1.51406 5.11748 1.28729 4.82963C1.06872 4.55313 1.13486 4.11299 1.40761 3.84366C1.96822 3.29543 2.5364 2.75317 3.12032 2.22346C3.46488 1.90873 3.95621 1.91829 4.31274 2.22346C4.53761 2.41575 4.74926 2.62179 4.99304 2.84574L4.02424 3.75945C3.99337 3.64837 3.99337 3.51221 3.92282 3.43458C3.88325 3.40004 3.83528 3.37532 3.78318 3.3626C3.73109 3.34989 3.67649 3.34959 3.62425 3.36172C3.57295 3.38883 3.52857 3.42632 3.49428 3.47153C3.45999 3.51674 3.43662 3.56855 3.42583 3.62329C3.41575 3.70272 3.50646 3.82634 3.58897 3.87292C3.67149 3.9195 3.78802 3.88188 3.8907 3.88188Z" fill="white"/>
<path d="M1.67162 8.50665L3.26025 11.5153C3.41016 11.7966 3.53614 12.0952 3.71315 12.3651C3.94432 12.7151 3.89519 13.0818 3.87629 13.4509C3.1834 13.5506 3.17017 13.5434 2.88356 12.9994C2.28137 11.8563 1.68296 10.7067 1.06628 9.56847C0.934 9.32421 0.940299 9.15043 1.16392 8.97127C1.33147 8.84048 1.48265 8.68521 1.67162 8.50665Z" fill="white"/>
<path d="M12.2358 13.4969C12.1785 13.0424 12.2175 12.6692 12.4216 12.2947C13.066 11.1141 13.6814 9.91907 14.3113 8.73064C14.3479 8.66197 14.3964 8.59866 14.4638 8.49176C14.6685 8.696 14.8732 8.86979 15.0307 9.07523C15.1006 9.16481 15.1346 9.34695 15.0855 9.44131C14.4298 10.7157 13.7532 11.9812 13.0887 13.252C12.889 13.6354 12.5419 13.424 12.2358 13.4969Z" fill="white"/>
<path d="M8.06462 10.1501C9.0687 10.1555 9.81136 10.8793 9.80569 11.8462C9.80324 12.065 9.75503 12.2812 9.66384 12.4823C9.57266 12.6834 9.44031 12.8653 9.27445 13.0175C9.1086 13.1698 8.91254 13.2893 8.69763 13.3692C8.48272 13.4491 8.25322 13.4878 8.02242 13.4831C7.05677 13.4759 6.29396 12.727 6.29711 11.7912C6.30026 10.8554 7.07126 10.1447 8.06462 10.1501ZM8.05455 10.684C7.73627 10.6837 7.43081 10.8029 7.20499 11.0155C6.97917 11.2282 6.85137 11.5169 6.84953 11.8187C6.84953 12.426 7.4259 12.9653 8.06336 12.9534C8.37583 12.9433 8.67255 12.8209 8.89322 12.6109C9.11388 12.4009 9.24194 12.1191 9.25137 11.8229C9.25195 11.6735 9.22142 11.5255 9.16153 11.3874C9.10165 11.2492 9.01358 11.1236 8.90239 11.0178C8.7912 10.912 8.65906 10.8281 8.51357 10.7708C8.36808 10.7135 8.21209 10.684 8.05455 10.684Z" fill="white"/>
<path d="M5.71242 14.6523H10.3687C10.5048 15.2262 10.1583 15.704 9.56178 15.7159C8.55393 15.737 7.54734 15.737 6.54201 15.7159C5.95494 15.7046 5.64502 15.2937 5.71242 14.6523Z" fill="white"/>
<path d="M6.33301 1.10669C6.21773 0.461716 6.54528 0.0568146 7.20417 0.0412875C7.75911 0.0275519 8.31532 0.0299407 8.87027 0.0412875C9.55246 0.0532314 9.88253 0.446785 9.77104 1.10968L6.33301 1.10669Z" fill="white"/>
<path d="M5.65639 7.31341C5.65428 7.419 5.61941 7.52166 5.55612 7.60857C5.49284 7.69548 5.40394 7.76279 5.30055 7.8021C5.19715 7.8414 5.08384 7.85095 4.97475 7.82956C4.86567 7.80817 4.76564 7.75678 4.68718 7.68181C4.60871 7.60685 4.55528 7.51163 4.53355 7.40805C4.51183 7.30447 4.52277 7.19711 4.56501 7.09939C4.60726 7.00167 4.67893 6.91791 4.77109 6.85858C4.86324 6.79924 4.97179 6.76697 5.08318 6.76577C5.15907 6.76496 5.23435 6.7786 5.30457 6.80589C5.3748 6.83318 5.43853 6.87355 5.49198 6.92462C5.54544 6.97569 5.58754 7.03642 5.61578 7.1032C5.64402 7.16999 5.65783 7.24147 5.65639 7.31341ZM5.5386 7.3349C5.33514 7.19516 5.23058 7.07393 5.10523 7.04885C5.06411 7.03853 5.02089 7.03843 4.97972 7.04856C4.93855 7.05868 4.90083 7.0787 4.87019 7.10666C4.83956 7.13463 4.81704 7.16961 4.8048 7.20823C4.79257 7.24684 4.79104 7.2878 4.80035 7.32714C4.81988 7.43165 4.98302 7.57319 5.09389 7.58394C5.20475 7.59469 5.32506 7.46091 5.5386 7.3349Z" fill="white"/>
<path d="M9.51457 5.73606C9.38859 5.54495 9.25379 5.43089 9.27143 5.3437C9.29158 5.24456 9.44654 5.16931 9.54292 5.08332C9.62984 5.17708 9.77535 5.26248 9.78606 5.3652C9.7974 5.45358 9.65441 5.5563 9.51457 5.73606Z" fill="white"/>
<path d="M8.62311 11.8164C8.62149 11.9235 8.58645 12.0277 8.5224 12.116C8.45835 12.2042 8.36817 12.2725 8.26324 12.3122C8.1583 12.3519 8.04331 12.3613 7.93278 12.3391C7.82224 12.3169 7.72111 12.2642 7.64215 12.1876C7.56318 12.111 7.50992 12.0139 7.48908 11.9086C7.46823 11.8033 7.48075 11.6946 7.52504 11.596C7.56933 11.4975 7.64341 11.4136 7.73795 11.3549C7.83247 11.2962 7.94322 11.2654 8.0562 11.2664C8.13202 11.2655 8.20724 11.2792 8.2773 11.3067C8.34735 11.3342 8.4108 11.3749 8.4638 11.4263C8.51679 11.4778 8.55824 11.5388 8.58562 11.6059C8.613 11.6729 8.62576 11.7445 8.62311 11.8164Z" fill="white"/>
</svg>
