<svg width="13" height="17" viewBox="0 0 13 17" fill="none" xmlns="http://www.w3.org/2000/svg">
<path d="M0.00252914 8.58095C0.00252914 10.6893 0.00252914 12.7976 0.00252914 14.906C0.00252914 15.8416 0.289759 16.1361 1.19652 16.1361H10.4214C11.2768 16.1361 11.6007 15.8089 11.6018 14.9267C11.6018 12.0019 11.6018 9.07605 11.6018 6.15128C11.6072 5.92495 11.5664 5.70001 11.482 5.49133C11.3976 5.28265 11.2716 5.095 11.1122 4.9408C10.0059 3.80521 8.90839 2.66234 7.81958 1.51221C7.6772 1.35293 7.50375 1.22714 7.31085 1.14326C7.11795 1.05938 6.91004 1.01935 6.70106 1.02584C4.84979 1.03783 2.99852 1.02584 1.14516 1.03238C0.292904 1.03238 0.00252914 1.33336 0.00148106 2.20796C-0.000616074 4.33374 -0.000266075 6.45807 0.00252914 8.58095ZM4.18832 8.14474H7.21891L8.68651 6.67909L9.04502 7.1491L7.67072 8.63875V11.606L9.09114 13.1077C8.91294 13.2789 8.8102 13.3781 8.64982 13.5308L7.25141 12.1011H4.0835L2.93038 13.5461L2.51107 13.0935L3.87384 11.6257V8.41846L2.48696 7.17091L2.95764 6.67254L4.18832 8.14474ZM7.32793 3.78267L7.26818 3.89172C7.16335 3.89935 7.06691 3.91353 6.96627 3.91353C5.56996 3.91353 4.17365 3.91898 2.77314 3.91353C2.56392 3.92091 2.35503 3.89066 2.1557 3.82411C1.74687 3.66489 1.43868 3.3879 1.40828 2.84809H6.35932L7.32793 3.78267Z" fill="white"/>
<path d="M8.64038 1.6169L11.541 4.67035C11.9037 4.29303 12.258 3.9975 12.5085 3.62673C12.606 3.48169 12.5568 3.08801 12.431 2.94406C11.7381 2.15452 11.0137 1.39552 10.2747 0.653971C9.96017 0.342083 9.72955 0.37589 9.40668 0.686687C9.18968 0.896067 8.98736 1.12289 8.77771 1.341C8.72299 1.42784 8.67697 1.52029 8.64038 1.6169Z" fill="white"/>
<path d="M6.98934 8.84377H4.57095V11.3749H6.98934V8.84377Z" fill="white"/>
</svg>
