<svg width="13" height="13" viewBox="0 0 13 13" fill="none" xmlns="http://www.w3.org/2000/svg">
<path d="M5.58351 6.5033C5.58351 6.21139 5.69618 5.93143 5.89673 5.72502C6.09729 5.5186 6.3693 5.40264 6.65292 5.40264C6.93655 5.40264 7.20856 5.5186 7.40911 5.72502C7.60967 5.93143 7.72234 6.21139 7.72234 6.5033C7.7243 8.421 7.26506 10.3094 6.38557 12M6.65292 3.20132C7.5038 3.20132 8.31983 3.54921 8.92149 4.16845C9.52315 4.78769 9.86116 5.62756 9.86116 6.5033C9.86116 6.94834 9.8412 7.3886 9.80128 7.82409M2.55439 10.0375C3.14001 8.95723 3.44654 7.74036 3.44468 6.5033C3.44426 6.03875 3.53933 5.57935 3.72364 5.15529C3.90794 4.73123 4.17733 4.35209 4.51409 4.04278M5.33327 8.70462C5.11132 9.66248 4.74469 10.5786 4.24674 11.4194M9.42271 10.0254C9.29858 10.5126 9.14864 10.9925 8.97355 11.4629M1 8.26436C1.20271 7.70068 1.30627 7.10435 1.30585 6.5033C1.30585 5.04374 1.8692 3.64395 2.87197 2.61188C3.87474 1.57981 5.23479 1 6.65292 1C8.07105 1 9.4311 1.57981 10.4339 2.61188C11.4366 3.64395 12 5.04374 12 6.5033C12.0011 7.68792 11.8756 8.86906 11.6257 10.0254" stroke="white" stroke-opacity="0.75" stroke-linecap="round" stroke-linejoin="round"/>
</svg>
