<svg width="16" height="15" viewBox="0 0 16 15" fill="none" xmlns="http://www.w3.org/2000/svg">
<path d="M8.01152 2.20691C8.1025 2.20506 8.18802 2.1583 8.24162 2.07795C8.40319 1.83572 8.55481 1.58214 8.74551 1.37632C10.458 -0.452923 13.0844 -0.455919 14.7475 1.35433C15.1436 1.78364 15.4582 2.29424 15.6731 2.8568C15.8881 3.41935 15.9991 4.02278 16 4.63239C16.0008 5.24201 15.8914 5.84579 15.6781 6.40906C15.4647 6.97233 15.1516 7.48399 14.7567 7.91461C12.7267 10.1717 10.6666 12.3967 8.61561 14.6318C8.16278 15.1316 7.82797 15.1196 7.36508 14.6138C5.33605 12.4021 3.31007 10.1873 1.28714 7.96958C-0.412558 6.09436 -0.427195 3.19256 1.23317 1.37232C2.91823 -0.475918 5.55743 -0.456921 7.30012 1.4273C7.47888 1.62012 7.62064 1.85337 7.77068 2.07815C7.82653 2.16182 7.91676 2.20883 8.01152 2.20691Z" fill="white"/>
</svg>
