<svg width="81" height="22" viewBox="0 0 81 22" fill="none" xmlns="http://www.w3.org/2000/svg">
<mask id="mask0_683_717" style="mask-type:alpha" maskUnits="userSpaceOnUse" x="0" y="0" width="81" height="22">
<mask id="path-1-inside-1_683_717" fill="white">
<path d="M0.901847 5.0381C-0.0619132 4.48167 -0.296546 3.19366 0.409092 2.33312C0.96885 1.65049 1.94052 1.47349 2.70504 1.91488L23.9886 14.203C33.2871 19.5714 44.7433 19.5714 54.0418 14.203L78.2235 0.241637C78.9454 -0.175171 79.859 -0.0427911 80.4329 0.561801C81.2358 1.40765 81.0367 2.78172 80.0267 3.36486L55.845 17.3262C45.4307 23.3389 32.5997 23.3389 22.1854 17.3262L0.901847 5.0381Z"/>
</mask>
<path d="M0.901847 5.0381C-0.0619132 4.48167 -0.296546 3.19366 0.409092 2.33312C0.96885 1.65049 1.94052 1.47349 2.70504 1.91488L23.9886 14.203C33.2871 19.5714 44.7433 19.5714 54.0418 14.203L78.2235 0.241637C78.9454 -0.175171 79.859 -0.0427911 80.4329 0.561801C81.2358 1.40765 81.0367 2.78172 80.0267 3.36486L55.845 17.3262C45.4307 23.3389 32.5997 23.3389 22.1854 17.3262L0.901847 5.0381Z" fill="white"/>
<path d="M0.409092 2.33312L-2.37961 0.0463867L-2.37961 0.046388L0.409092 2.33312ZM0.901847 5.0381L2.70504 1.91488L2.70504 1.91488L0.901847 5.0381ZM2.70504 1.91488L4.50823 -1.20834L4.50823 -1.20834L2.70504 1.91488ZM23.9886 14.203L22.1854 17.3262L23.9886 14.203ZM54.0418 14.203L52.2386 11.0797L54.0418 14.203ZM55.845 17.3262L57.6482 20.4494L55.845 17.3262ZM22.1854 17.3262L20.3822 20.4494H20.3822L22.1854 17.3262ZM80.4329 0.561801L77.8173 3.04469L80.4329 0.561801ZM80.0267 3.36486L78.2235 0.241637V0.241637L80.0267 3.36486ZM78.2235 0.241637L80.0267 3.36486L78.2235 0.241637ZM-2.37961 0.046388C-4.49652 2.62799 -3.79263 6.49204 -0.901342 8.16132L2.70504 1.91488C3.6688 2.4713 3.90343 3.75932 3.19779 4.61985L-2.37961 0.046388ZM4.50823 -1.20834C2.21468 -2.53252 -0.700334 -2.00151 -2.37961 0.0463867L3.19779 4.61986C2.63803 5.30249 1.66637 5.47949 0.901853 5.0381L4.50823 -1.20834ZM25.7918 11.0797L4.50823 -1.20834L0.901849 5.0381L22.1854 17.3262L25.7918 11.0797ZM52.2386 11.0797C44.0559 15.804 33.9745 15.804 25.7918 11.0797L22.1854 17.3262C32.5997 23.3389 45.4307 23.3389 55.845 17.3262L52.2386 11.0797ZM76.4203 -2.88158L52.2386 11.0797L55.845 17.3262L80.0267 3.36486L76.4203 -2.88158ZM57.6482 20.4494L81.8299 6.48808L78.2235 0.241637L54.0418 14.203L57.6482 20.4494ZM20.3822 20.4494C31.9123 27.1063 46.118 27.1063 57.6482 20.4494L54.0418 14.203C44.7433 19.5714 33.2871 19.5714 23.9886 14.203L20.3822 20.4494ZM-0.901346 8.16131L20.3822 20.4494L23.9886 14.203L2.70504 1.91488L-0.901346 8.16131ZM77.8173 3.04469C77.0144 2.19883 77.2135 0.824766 78.2235 0.241637L81.8299 6.48808C84.8599 4.73868 85.4573 0.616472 83.0485 -1.92109L77.8173 3.04469ZM80.0267 3.36486C79.3048 3.78166 78.3912 3.64929 77.8173 3.04469L83.0485 -1.92109C81.3267 -3.73487 78.5861 -4.132 76.4203 -2.88158L80.0267 3.36486Z" fill="#FFE37E" mask="url(#path-1-inside-1_683_717)"/>
</mask>
<g mask="url(#mask0_683_717)">
<path d="M-3.05933 0.596069L29.3981 18.628L40.8183 19.8301L50.4354 18.0269L81.0151 1.43652" stroke="#FFE37E" stroke-width="4.80851" stroke-linecap="round"/>
</g>
</svg>
