<svg width="11" height="14" viewBox="0 0 11 14" fill="none" xmlns="http://www.w3.org/2000/svg">
<path d="M2.27365 4.7301C2.27365 3.99849 2.22347 3.26688 2.28426 2.53718C2.40724 1.07397 3.69012 0.0115436 5.26845 9.23403e-05C6.84677 -0.0113589 8.18478 1.04343 8.27242 2.50792C8.36042 4.00041 8.36042 5.49605 8.27242 6.98854C8.23237 7.69202 7.88378 8.35244 7.3032 8.82479C6.72262 9.29713 5.9575 9.54279 5.17585 9.50782C3.50493 9.42702 2.2779 8.26345 2.26164 6.73344C2.25457 6.06545 2.26164 5.39746 2.26164 4.7301H2.27365Z" fill="white"/>
<path d="M6.04382 11.501C6.04382 11.9463 6.04736 12.3611 6.04382 12.7733C6.03817 13.2581 5.74625 13.5698 5.29813 13.5787C4.83941 13.5883 4.52841 13.2657 4.52063 12.7676C4.52063 12.3554 4.52063 11.9406 4.52063 11.5143C4.30859 11.4673 4.11916 11.4259 3.92903 11.3807C2.82886 11.118 1.85228 10.5427 1.14449 9.74032C0.436701 8.93799 0.0354987 7.95147 0.000531076 6.92747C-0.0143121 6.45796 0.283258 6.12906 0.733501 6.11316C1.18374 6.09726 1.49121 6.40453 1.52231 6.88357C1.63187 8.57009 2.81508 9.81 4.61747 10.1319C6.77538 10.5136 8.9234 9.00969 9.03437 7.0369C9.03437 6.97328 9.03437 6.90966 9.04285 6.84604C9.0789 6.39435 9.40404 6.09471 9.8359 6.1138C10.2678 6.13288 10.5816 6.45161 10.5604 6.90139C10.4897 8.35633 9.84721 9.55935 8.59543 10.4894C7.86529 11.0308 7.01358 11.347 6.04382 11.501Z" fill="white"/>
</svg>
