<svg width="25" height="25" viewBox="0 0 25 25" fill="none" xmlns="http://www.w3.org/2000/svg">
<path d="M21.6863 21.301C21.6204 21.415 21.5257 21.5097 21.4117 21.5756C21.2976 21.6414 21.1683 21.676 21.0366 21.676H3.03658C2.905 21.6759 2.77576 21.6411 2.66185 21.5752C2.54795 21.5094 2.45338 21.4147 2.38764 21.3007C2.32191 21.1867 2.28732 21.0574 2.28735 20.9258C2.28739 20.7942 2.32204 20.665 2.38783 20.551C3.81565 18.0826 6.01596 16.3126 8.58377 15.4735C7.31362 14.7174 6.32678 13.5652 5.77482 12.1939C5.22286 10.8227 5.13629 9.30814 5.5284 7.88291C5.92052 6.45768 6.76964 5.20057 7.94536 4.30463C9.12108 3.40869 10.5584 2.92346 12.0366 2.92346C13.5148 2.92346 14.9521 3.40869 16.1278 4.30463C17.3035 5.20057 18.1527 6.45768 18.5448 7.88291C18.9369 9.30814 18.8503 10.8227 18.2983 12.1939C17.7464 13.5652 16.7596 14.7174 15.4894 15.4735C18.0572 16.3126 20.2575 18.0826 21.6853 20.551C21.7513 20.6649 21.7861 20.7942 21.7863 20.9259C21.7864 21.0575 21.752 21.1869 21.6863 21.301Z" fill="white"/>
</svg>
