<svg width="11" height="15" viewBox="0 0 11 15" fill="none" xmlns="http://www.w3.org/2000/svg">
<path d="M4.97265 6.00941V4.68853C4.2421 4.29917 4.00841 3.72273 4.2126 3.06707C4.29824 2.80085 4.47205 2.57105 4.70592 2.41485C4.93978 2.25864 5.22002 2.18518 5.50127 2.20633C5.77118 2.22614 6.02797 2.32951 6.23532 2.50182C6.44266 2.67413 6.59005 2.90666 6.65665 3.16651C6.80072 3.78453 6.5347 4.29468 5.86258 4.66943V5.98413C5.88016 5.99761 5.88867 6.00941 5.89491 6.00828C6.51882 5.90996 6.68217 6.30549 6.84156 6.79486C7.56076 8.98939 8.30719 11.1772 9.04454 13.3644C9.07063 13.4425 9.10126 13.5201 9.13246 13.6111C9.53744 13.6111 9.93334 13.6111 10.3292 13.6111C10.6389 13.6111 10.8301 13.7706 10.8397 14.0206C10.8477 14.2808 10.6497 14.4527 10.3292 14.4533C7.05955 14.4533 3.79004 14.4533 0.520729 14.4533C0.195158 14.4533 -0.00336011 14.2847 4.30625e-05 14.0268C0.00344624 13.7689 0.201397 13.6122 0.531505 13.6105C0.918332 13.6105 1.30459 13.6105 1.71184 13.6105C2.0238 12.6824 2.33575 11.7632 2.64317 10.844C3.12302 9.41695 3.60306 7.99007 4.08328 6.56338C4.25344 6.0611 4.28067 6.042 4.82688 6.02514C4.86658 6.02233 4.91196 6.01503 4.97265 6.00941ZM5.41676 10.9761L3.00561 13.588H7.83074L5.41676 10.9761ZM4.87112 6.87464C4.68621 7.42468 4.50244 7.97022 4.31356 8.53093L5.41846 9.72035L6.52222 8.53375L5.96183 6.87801L4.87112 6.87464ZM3.08899 12.1705L3.13153 12.1936L4.83822 10.3479L4.00331 9.44897C3.68625 10.394 3.38847 11.2839 3.08899 12.1739V12.1705ZM6.82794 9.44786L5.9953 10.3468L7.70029 12.1891L7.74283 12.166C7.44392 11.2834 7.14614 10.3951 6.82794 9.45122V9.44786ZM5.42754 3.04965C5.31714 3.04945 5.21104 3.09198 5.13187 3.16819C5.05269 3.24439 5.00672 3.34823 5.00376 3.45754C5.0008 3.56685 5.04108 3.67298 5.11602 3.75328C5.19095 3.83358 5.2946 3.88169 5.40485 3.88735C5.51524 3.88755 5.62135 3.84502 5.70052 3.76881C5.77969 3.69261 5.82567 3.58877 5.82863 3.47946C5.83159 3.37015 5.7913 3.26402 5.71637 3.18372C5.64143 3.10342 5.53778 3.05531 5.42754 3.04965Z" fill="white"/>
<path d="M2.40892 0C2.55583 0.112367 2.71407 0.180912 2.76682 0.295527C2.81957 0.410142 2.78894 0.579815 2.75548 0.715218C2.73563 0.796122 2.64204 0.859613 2.57795 0.928719C1.94389 1.62157 1.59157 2.52261 1.58906 3.45776C1.58655 4.39291 1.93401 5.29581 2.56433 5.992L2.60234 6.03357C2.86949 6.32404 2.89898 6.57799 2.68742 6.76396C2.47585 6.94993 2.24217 6.89543 1.98126 6.61507C1.17906 5.75963 0.733821 4.6349 0.735189 3.46734C0.736557 2.29978 1.18443 1.17609 1.98863 0.322494C2.0981 0.205632 2.245 0.124166 2.40892 0Z" fill="white"/>
<path d="M10.0956 3.52946C10.0865 4.70931 9.6418 5.79085 8.77115 6.69822C8.60099 6.8752 8.40361 6.93251 8.18808 6.79092C8.00714 6.67294 7.9663 6.49202 8.03493 6.29594C8.0694 6.21946 8.11808 6.1501 8.17843 6.09144C9.61231 4.49919 9.61117 2.4395 8.1739 0.843315C7.96006 0.605096 7.94702 0.347775 8.14554 0.176415C8.34406 0.00505437 8.5715 0.0404518 8.79384 0.262378C9.6106 1.08154 10.0887 2.25521 10.0956 3.52946Z" fill="white"/>
<path d="M2.43842 3.46373C2.43376 2.72552 2.71513 2.01366 3.22455 1.47482C3.45483 1.22536 3.68908 1.1939 3.891 1.36863C4.09293 1.54336 4.08101 1.78327 3.86038 2.03385C3.08956 2.90919 3.09239 4.02388 3.86718 4.91102C4.07704 5.15092 4.09009 5.37903 3.90462 5.55657C3.70893 5.7431 3.46788 5.71444 3.23646 5.47622C2.72086 4.93089 2.43534 4.21087 2.43842 3.46373Z" fill="white"/>
<path d="M8.39397 3.50362C8.39084 4.24179 8.10195 4.95064 7.58685 5.48409C7.37018 5.71332 7.13309 5.7386 6.93968 5.56556C6.74627 5.39251 6.75251 5.15542 6.95556 4.92113C7.74453 4.00927 7.74964 2.91931 6.9635 2.02261C6.75534 1.78383 6.74343 1.55348 6.93061 1.37706C7.12742 1.19222 7.37018 1.21919 7.59763 1.46246C8.12322 2.01296 8.40924 2.74608 8.39397 3.50362Z" fill="white"/>
</svg>
