<svg width="23" height="23" viewBox="0 0 23 23" fill="none" xmlns="http://www.w3.org/2000/svg">
<path d="M1.78336 14.3509C1.04136 13.8048 1.00467 13.4396 1.5587 12.8828C2.20134 12.2392 2.82788 11.5786 3.49737 10.9645C3.7086 10.7694 4.02456 10.6593 4.31097 10.5841C4.59739 10.5089 4.9375 10.5385 5.24182 10.4785C5.43876 10.4448 5.62371 10.3609 5.77885 10.235C6.1664 9.8868 6.51816 9.4992 6.89318 9.13578C7.28163 8.76071 7.60922 8.74729 7.98156 9.11966C9.94589 11.0764 11.9066 13.0374 13.8638 15.0025C14.2362 15.3767 14.2218 15.7016 13.854 16.091C13.649 16.3076 13.4584 16.5484 13.2185 16.7176C12.5919 17.1598 12.4022 17.7783 12.4255 18.4945C12.4407 18.9626 12.2554 19.3108 11.9153 19.6286C11.295 20.2086 10.7088 20.8254 10.1064 21.4251C9.54879 21.9801 9.18898 21.9452 8.62689 21.1951C8.79963 21.0599 9.01086 20.9355 9.16929 20.7636C9.89696 19.9723 9.9256 18.8203 9.17734 18.0487C7.78644 16.6165 6.37376 15.2036 4.93929 13.8102C4.15523 13.0493 2.99346 13.0896 2.19239 13.8442C2.04431 14.0033 1.90762 14.1726 1.78336 14.3509Z" fill="white"/>
<path d="M12.5418 4.76934C12.242 4.49364 11.9824 4.26896 11.7363 4.02906C11.2046 3.50183 11.21 3.22344 11.7524 2.68636C12.4595 1.9786 13.1665 1.27204 13.8736 0.566667C14.4474 -0.00443136 14.7669 0.0161569 15.3361 0.71168C14.9092 1.1306 14.4724 1.55132 14.0446 1.98099C13.0923 2.93968 13.086 4.10157 14.0347 5.05489C15.3272 6.35583 16.6235 7.65258 17.9237 8.94516C18.8787 9.89491 20.0405 9.89312 20.9973 8.94516C21.4189 8.52534 21.8261 8.09031 22.2298 7.67228C22.9226 8.09031 22.9933 8.53519 22.4831 9.0481C21.7378 9.79942 20.9896 10.5478 20.2383 11.2931C19.7675 11.7604 19.465 11.7586 18.9906 11.2806C18.7391 11.0273 18.5046 10.7578 18.1994 10.4266C17.9148 10.7337 17.6812 10.9968 17.435 11.2466C16.8165 11.8732 16.1972 12.4998 15.568 13.1111C15.2099 13.4576 14.8519 13.4692 14.5073 13.1299C12.9523 11.5867 11.403 10.0372 9.85934 8.48148C9.50132 8.12343 9.52728 7.77074 9.90678 7.38941C10.758 6.53008 11.6172 5.68686 12.5418 4.76934ZM15.7309 9.00156C15.6861 8.82253 15.6915 8.71153 15.6413 8.65603C15.2108 8.20846 14.7973 7.7412 14.3113 7.36614C14.1833 7.26767 13.7653 7.40463 13.5801 7.55591C13.3268 7.76179 13.3393 8.10642 13.5648 8.36153C13.892 8.74486 14.2527 9.09834 14.6425 9.4178C14.8009 9.53954 15.1339 9.54759 15.3326 9.46882C15.5143 9.39452 15.627 9.13851 15.7309 9.00156Z" fill="white"/>
<path d="M19.4757 8.37492C19.2753 8.25945 19.0685 8.18963 18.9298 8.05177C17.5932 6.73174 16.2637 5.40366 14.9414 4.06751C14.57 3.69424 14.5754 3.3514 14.9477 2.97813C15.8386 2.07702 16.7336 1.18188 17.6328 0.292714C18.0293 -0.0984618 18.3551 -0.0984618 18.7534 0.298085C20.0662 1.602 21.3741 2.9098 22.6773 4.22148C23.0899 4.63593 23.0873 4.95818 22.6773 5.37621C21.796 6.26478 20.9078 7.14798 20.0128 8.02582C19.874 8.16456 19.6771 8.24781 19.4757 8.37492Z" fill="white"/>
<path d="M8.42819 19.4111C8.31452 19.5991 8.23844 19.8005 8.1006 19.941C7.20555 20.857 6.29917 21.7647 5.38145 22.664C5.01895 23.0221 4.6851 23.0221 4.32708 22.664C2.98212 21.3303 1.64254 19.9908 0.308318 18.6457C-0.0300096 18.3038 -0.0317997 17.9631 0.302948 17.6235C1.22306 16.6884 2.15122 15.7604 3.08744 14.8396C3.41055 14.5227 3.75783 14.5156 4.07915 14.8325C5.45156 16.1853 6.81173 17.5465 8.15967 18.9161C8.27692 19.0387 8.32794 19.224 8.42819 19.4111Z" fill="white"/>
</svg>
