<svg width="13" height="13" viewBox="0 0 13 13" fill="none" xmlns="http://www.w3.org/2000/svg">
<path fill-rule="evenodd" clip-rule="evenodd" d="M6.03509 12.0702C9.36817 12.0702 12.0702 9.36819 12.0702 6.03509C12.0702 2.70198 9.36817 0 6.03509 0C2.702 0 0 2.70198 0 6.03509C0 9.36819 2.702 12.0702 6.03509 12.0702ZM6.37995 2.98307C6.37995 2.69739 6.14835 2.46577 5.86266 2.46577C5.57696 2.46577 5.34536 2.69739 5.34536 2.98307V6.71492L7.56605 8.9356C7.76807 9.13763 8.09559 9.13763 8.29761 8.9356C8.49962 8.73362 8.49962 8.40606 8.29761 8.20403L6.37995 6.28641V2.98307Z" fill="white"/>
</svg>
