<svg width="26" height="26" viewBox="0 0 26 26" fill="none" xmlns="http://www.w3.org/2000/svg">
<rect width="26" height="26" rx="13" fill="#37C605"/>
<path d="M19.5306 9.71623L11.5306 17.2162C11.4609 17.2818 11.3782 17.3338 11.287 17.3693C11.1958 17.4048 11.0981 17.423 10.9994 17.423C10.9007 17.423 10.8029 17.4048 10.7118 17.3693C10.6206 17.3338 10.5378 17.2818 10.4681 17.2162L6.96812 13.935C6.89836 13.8696 6.84302 13.7919 6.80526 13.7065C6.76751 13.621 6.74807 13.5294 6.74807 13.4369C6.74807 13.3444 6.76751 13.2529 6.80526 13.1674C6.84302 13.0819 6.89836 13.0043 6.96812 12.9389C7.03789 12.8735 7.12071 12.8216 7.21186 12.7862C7.30302 12.7508 7.40071 12.7326 7.49937 12.7326C7.59804 12.7326 7.69573 12.7508 7.78689 12.7862C7.87804 12.8216 7.96086 12.8735 8.03062 12.9389L11 15.7227L18.4694 8.72131C18.6103 8.58922 18.8014 8.51501 19.0006 8.51501C19.1999 8.51501 19.391 8.58922 19.5319 8.72131C19.6728 8.8534 19.7519 9.03256 19.7519 9.21936C19.7519 9.40616 19.6728 9.58532 19.5319 9.71741L19.5306 9.71623Z" fill="black"/>
</svg>
