<svg width="14" height="12" viewBox="0 0 14 12" fill="none" xmlns="http://www.w3.org/2000/svg">
<path fill-rule="evenodd" clip-rule="evenodd" d="M9.40839 1.2973C8.33797 -0.432434 5.66191 -0.432434 4.59148 1.2973L0.376677 8.10811C-0.693748 9.83784 0.644284 12 2.78514 12H11.2147C13.3556 12 14.6936 9.83784 13.6232 8.10811L9.40839 1.2973ZM7.63355 7.58857L7.85275 2.85406H5.82519L6.04438 7.58857H7.63355ZM6.05534 9.86193C6.26723 10.0333 6.53757 10.1189 6.86636 10.1189C7.18786 10.1189 7.45089 10.0333 7.65547 9.86193C7.86736 9.68401 7.97331 9.46656 7.97331 9.20958C7.97331 8.946 7.86736 8.72526 7.65547 8.54734C7.45089 8.36942 7.18786 8.28047 6.86636 8.28047C6.53757 8.28047 6.26723 8.36942 6.05534 8.54734C5.85076 8.72526 5.74847 8.946 5.74847 9.20958C5.74847 9.46656 5.85076 9.68401 6.05534 9.86193Z" fill="#111"/>
</svg>
