<svg width="28" height="22" viewBox="0 0 28 22" fill="none" xmlns="http://www.w3.org/2000/svg">
<path d="M6 22H3.78925C3.53801 22 3.29706 21.8376 3.11941 21.5484C2.94176 21.2593 2.84195 20.8671 2.84195 20.4582V12.7493H0.473692C0.380013 12.7492 0.288444 12.704 0.210563 12.6193C0.132683 12.5345 0.0719884 12.4141 0.0361564 12.2732C0.000254545 12.1324 -0.00917683 11.9774 0.00905535 11.8278C0.0272875 11.6782 0.0723645 11.5408 0.138584 11.433L5.8224 2.18222C5.86639 2.11054 5.91863 2.05368 5.97613 2.01489C5.98401 2.00957 5.99197 2.00461 6 2V22Z" fill="white"/>
<path d="M20.1208 13.948H15.9448V18.22H12.0568V13.948H7.88084V10.276H12.0568V5.98H15.9448V10.276H20.1208V13.948Z" fill="white"/>
<path d="M10.9886 2.59574C10.9772 2.64142 10.958 2.68047 10.9333 2.70795C10.9087 2.73542 10.8797 2.7501 10.85 2.75011H9.65005V5.75001C9.65005 5.81631 9.63424 5.8799 9.60611 5.92678C9.57798 5.97366 9.53983 6 9.50005 6C9.46027 6 9.42212 5.97366 9.39399 5.92678C9.36586 5.8799 9.35006 5.81631 9.35006 5.75001V2.75011H8.15011C8.12043 2.75015 8.09141 2.7355 8.06672 2.70804C8.04203 2.68057 8.02279 2.64151 8.01142 2.59581C8.00006 2.5501 7.99709 2.49981 8.00289 2.45129C8.00869 2.40277 8.02299 2.35821 8.04399 2.32325L9.39393 0.0733192C9.40786 0.0500759 9.42441 0.0316368 9.44261 0.0190561C9.46082 0.00647545 9.48034 0 9.50005 0C9.51976 0 9.53928 0.00647545 9.55749 0.0190561C9.5757 0.0316368 9.59224 0.0500759 9.60617 0.0733192L10.9561 2.32325C10.9771 2.35823 10.9914 2.40279 10.9971 2.45129C11.0029 2.49979 10.9999 2.55006 10.9886 2.59574Z" fill="white"/>
<path d="M19.9886 4.59574C19.9772 4.64142 19.958 4.68047 19.9333 4.70795C19.9087 4.73542 19.8797 4.7501 19.85 4.75011H18.65V7.75001C18.65 7.81631 18.6342 7.8799 18.6061 7.92678C18.578 7.97366 18.5398 8 18.5001 8C18.4603 8 18.4221 7.97366 18.394 7.92678C18.3659 7.8799 18.3501 7.81631 18.3501 7.75001V4.75011H17.1501C17.1204 4.75015 17.0914 4.7355 17.0667 4.70804C17.042 4.68057 17.0228 4.64151 17.0114 4.59581C17.0001 4.55011 16.9971 4.49981 17.0029 4.45129C17.0087 4.40277 17.023 4.35821 17.044 4.32325L18.3939 2.07332C18.4079 2.05008 18.4244 2.03164 18.4426 2.01906C18.4608 2.00648 18.4803 2 18.5001 2C18.5198 2 18.5393 2.00648 18.5575 2.01906C18.5757 2.03164 18.5922 2.05008 18.6062 2.07332L19.9561 4.32325C19.9771 4.35823 19.9914 4.40279 19.9971 4.45129C20.0029 4.49979 19.9999 4.55006 19.9886 4.59574Z" fill="white"/>
<path d="M14.9924 1.73049C14.9848 1.76095 14.972 1.78698 14.9555 1.8053C14.9391 1.82362 14.9198 1.8334 14.9 1.8334H14.1V3.83334C14.1 3.87754 14.0895 3.91993 14.0707 3.95119C14.052 3.98244 14.0266 4 14 4C13.9735 4 13.9481 3.98244 13.9293 3.95119C13.9106 3.91993 13.9 3.87754 13.9 3.83334V1.8334H13.1001C13.0803 1.83343 13.0609 1.82367 13.0445 1.80536C13.028 1.78705 13.0152 1.76101 13.0076 1.73054C13 1.70007 12.9981 1.66654 13.0019 1.63419C13.0058 1.60185 13.0153 1.57214 13.0293 1.54883L13.9293 0.0488795C13.9386 0.0333839 13.9496 0.0210912 13.9617 0.0127041C13.9739 0.00431697 13.9869 0 14 0C14.0132 0 14.0262 0.00431697 14.0383 0.0127041C14.0505 0.0210912 14.0615 0.0333839 14.0708 0.0488795L14.9707 1.54883C14.9847 1.57215 14.9942 1.60186 14.9981 1.63419C15.0019 1.66653 14.9999 1.70004 14.9924 1.73049Z" fill="white"/>
<path d="M22 22H24.2107C24.462 22 24.7029 21.8376 24.8806 21.5484C25.0582 21.2593 25.1581 20.8671 25.1581 20.4582V12.7493H27.5263C27.62 12.7492 27.7116 12.704 27.7894 12.6193C27.8673 12.5345 27.928 12.4141 27.9638 12.2732C27.9997 12.1324 28.0092 11.9774 27.9909 11.8278C27.9727 11.6782 27.9276 11.5408 27.8614 11.433L22.1776 2.18222C22.1336 2.11054 22.0814 2.05368 22.0239 2.01489C22.016 2.00957 22.008 2.00461 22 2V22Z" fill="white"/>
</svg>
