<svg width="6" height="19" viewBox="0 0 6 19" fill="none" xmlns="http://www.w3.org/2000/svg">
<path d="M3.7848 0C4.35346 0 4.80766 0.47356 4.78393 1.04172L4.36458 11.0851C4.34222 11.6207 3.90151 12.0434 3.36545 12.0434H1.63797C1.10192 12.0434 0.661208 11.6207 0.638845 11.0851L0.219495 1.04172C0.195773 0.47356 0.649972 0 1.21862 0H3.7848ZM2.56457 18.48C1.81029 18.48 1.1901 18.2621 0.704 17.8263C0.234667 17.3737 0 16.8206 0 16.1669C0 15.4964 0.234667 14.9349 0.704 14.4823C1.1901 14.0297 1.81029 13.8034 2.56457 13.8034C3.3021 13.8034 3.90552 14.0297 4.37486 14.4823C4.86095 14.9349 5.104 15.4964 5.104 16.1669C5.104 16.8206 4.86095 17.3737 4.37486 17.8263C3.90552 18.2621 3.3021 18.48 2.56457 18.48Z" fill="white"/>
</svg>
