<svg width="84" height="106" viewBox="0 0 84 106" fill="none" xmlns="http://www.w3.org/2000/svg">
<path d="M73.8252 63.7903C73.3104 63.7903 72.8163 63.5618 72.4524 63.1564C72.0885 62.7509 71.884 62.2008 71.884 61.6273V45.2367C71.8803 37.3308 69.3728 29.6796 64.8024 23.631C60.2326 17.5823 53.8932 13.5241 46.9007 12.1707C47.9067 10.8762 48.4521 9.2159 48.4334 7.50385C48.457 6.3141 48.2207 5.13589 47.7447 4.07051C47.2686 3.00513 46.5672 2.08452 45.7009 1.38816C44.8346 0.691793 43.8293 0.240471 42.7717 0.0730361C41.714 -0.0943983 40.6356 0.0270577 39.6295 0.427C38.6233 0.826943 37.7195 1.49329 36.9959 2.36877C36.2723 3.24425 35.7506 4.30269 35.4757 5.45269C35.2008 6.60263 35.181 7.80971 35.418 8.97009C35.655 10.1305 36.1416 11.2094 36.836 12.1137C29.7975 13.4206 23.4034 17.4664 18.7913 23.5316C14.1792 29.5968 11.6482 37.2879 11.6486 45.2367V61.8547C11.6486 62.4425 11.5439 63.0249 11.3404 63.5671C11.1369 64.1093 10.8388 64.6012 10.4633 65.014C10.0879 65.4274 9.64251 65.7529 9.15312 65.9728C8.66373 66.1922 8.14002 66.3019 7.61244 66.2945C5.5888 66.3094 3.65266 67.2151 2.2265 68.8141C0.800344 70.4137 -4.4969e-05 72.5766 1.89496e-09 74.8312V81.8882C1.89496e-09 82.7335 0.301413 83.5439 0.837962 84.1417C1.37451 84.739 2.10224 85.0751 2.86104 85.0751H27.5376C27.3181 86.1011 27.1982 87.1505 27.1799 88.2052C27.0618 90.435 27.3541 92.6684 28.0389 94.7682C28.7237 96.8676 29.7864 98.7888 31.162 100.414C32.5375 102.039 34.1968 103.335 36.0379 104.22C37.879 105.105 39.8631 105.561 41.8683 105.561C43.8736 105.561 45.8577 105.105 47.6988 104.22C49.5399 103.335 51.1992 102.039 52.5747 100.414C53.95 98.7888 55.0131 96.8676 55.6978 94.7682C56.3826 92.6684 56.6748 90.435 56.5569 88.2052C56.5303 87.1543 56.4278 86.1075 56.2503 85.0751H80.6714C81.43 85.0751 82.1578 84.739 82.6944 84.1417C83.2309 83.5439 83.5322 82.7335 83.5322 81.8882V74.8312C83.5598 73.3923 83.3287 71.9613 82.8527 70.623C82.3772 69.2842 81.6664 68.0658 80.7622 67.037C79.8586 66.0088 78.7791 65.1916 77.588 64.634C76.3964 64.0765 75.1172 63.7897 73.8252 63.7903Z" fill="#4D8CFF"/>
</svg>
