<svg width="37" height="40" viewBox="0 0 37 40" fill="none" xmlns="http://www.w3.org/2000/svg">
<path d="M21.9285 38.0789C19.8069 39.3038 17.193 39.3038 15.0714 38.0789L4.55644 32.0081C2.43483 30.7831 1.12787 28.5194 1.12787 26.0696L1.12787 13.928C1.12787 11.4781 2.43483 9.21441 4.55644 7.9895L15.0714 1.91868C17.193 0.693772 19.8069 0.693773 21.9285 1.91868L32.4435 7.9895C34.5651 9.21441 35.8721 11.4781 35.8721 13.928V26.0696C35.8721 28.5194 34.5651 30.7831 32.4435 32.0081L21.9285 38.0789Z" stroke="#4D8CFF" stroke-width="2"/>
<g clip-path="url(#clip0_6792_11147)">
<path d="M25.86 12.5938H12.06C11.694 12.5938 11.343 12.7452 11.0842 13.0148C10.8254 13.2844 10.68 13.65 10.68 14.0312V19.0625C10.68 23.7991 12.8811 26.6696 14.7277 28.2436C16.7166 29.9381 18.6952 30.5131 18.7815 30.5373C18.9001 30.571 19.0251 30.571 19.1437 30.5373C19.23 30.5131 21.2059 29.9381 23.1975 28.2436C25.0389 26.6696 27.24 23.7991 27.24 19.0625V14.0312C27.24 13.65 27.0946 13.2844 26.8358 13.0148C26.577 12.7452 26.226 12.5938 25.86 12.5938ZM22.8999 18.8523L18.0699 23.8835C18.0058 23.9503 17.9297 24.0034 17.8459 24.0395C17.7622 24.0757 17.6724 24.0943 17.5817 24.0943C17.491 24.0943 17.4013 24.0757 17.3175 24.0395C17.2337 24.0034 17.1576 23.9503 17.0935 23.8835L15.0235 21.7273C14.8941 21.5924 14.8213 21.4095 14.8213 21.2188C14.8213 21.028 14.8941 20.8451 15.0235 20.7102C15.153 20.5754 15.3286 20.4996 15.5117 20.4996C15.6948 20.4996 15.8704 20.5754 15.9999 20.7102L17.58 22.3589L21.9218 17.8352C21.9859 17.7685 22.062 17.7155 22.1458 17.6793C22.2296 17.6432 22.3193 17.6246 22.41 17.6246C22.5007 17.6246 22.5904 17.6432 22.6742 17.6793C22.758 17.7155 22.8341 17.7685 22.8982 17.8352C22.9623 17.902 23.0131 17.9813 23.0478 18.0685C23.0825 18.1558 23.1004 18.2493 23.1004 18.3438C23.1004 18.4382 23.0825 18.5317 23.0478 18.619C23.0131 18.7062 22.9623 18.7855 22.8982 18.8523H22.8999Z" fill="#4D8CFF"/>
</g>
<defs>
<clipPath id="clip0_6792_11147">
<rect width="23" height="23" fill="white" transform="translate(7 9)"/>
</clipPath>
</defs>
</svg>
