<svg width="15" height="15" viewBox="0 0 15 15" fill="none" xmlns="http://www.w3.org/2000/svg">
<path d="M2.67857 11.5178C2.8674 11.5186 3.05252 11.5704 3.21428 11.6678V8.68926C3.05252 8.78669 2.8674 8.83852 2.67857 8.83926V11.5178Z" fill="white"/>
<path d="M2.67856 8.30355C2.97442 8.30355 3.21427 8.0637 3.21427 7.76784C3.21427 7.47197 2.97442 7.23212 2.67856 7.23212C2.38269 7.23212 2.14284 7.47197 2.14284 7.76784C2.14284 8.0637 2.38269 8.30355 2.67856 8.30355Z" fill="white"/>
<path d="M2.67856 13.125C2.97442 13.125 3.21427 12.8851 3.21427 12.5893C3.21427 12.2934 2.97442 12.0535 2.67856 12.0535C2.38269 12.0535 2.14284 12.2934 2.14284 12.5893C2.14284 12.8851 2.38269 13.125 2.67856 13.125Z" fill="white"/>
<path d="M13.7571 8.97855L13.291 9.91069H15L13.7571 8.97855Z" fill="white"/>
<path d="M2.14285 9.91069H0.535713V9.37498C0.535713 9.22704 0.41579 9.10712 0.267856 9.10712C0.119923 9.10712 0 9.22704 0 9.37498V10.9821C0 11.13 0.119923 11.25 0.267856 11.25C0.41579 11.25 0.535713 11.13 0.535713 10.9821V10.4464H2.14285V9.91069Z" fill="white"/>
<path d="M11.25 9.91069H12.691L13.216 8.86337L10.5455 9.00266C10.4808 9.12385 10.4468 9.25903 10.4464 9.3964V9.92944C10.4411 10.2201 10.2013 10.4515 9.91069 10.4464H6.1607C5.87005 10.4515 5.63026 10.2201 5.62499 9.92944V9.3964C5.62419 9.35158 5.62061 9.30685 5.61427 9.26248L3.74999 9.36158V9.91069H4.82142C4.96935 9.91069 5.08927 10.0306 5.08927 10.1785C5.08927 10.3265 4.96935 10.4464 4.82142 10.4464H3.74999V10.9955L13.216 11.4937L12.691 10.4464H11.25C11.102 10.4464 10.9821 10.3265 10.9821 10.1785C10.9821 10.0306 11.102 9.91069 11.25 9.91069Z" fill="white"/>
<path d="M9.9107 6.1607C10.3545 6.1607 10.7143 5.80093 10.7143 5.35713C10.7143 4.91333 10.3545 4.55356 9.9107 4.55356C9.4669 4.55356 9.10713 4.91333 9.10713 5.35713C9.10713 5.80093 9.4669 6.1607 9.9107 6.1607Z" fill="white"/>
<path d="M6.16071 6.1607C6.60451 6.1607 6.96428 5.80093 6.96428 5.35713C6.96428 4.91333 6.60451 4.55356 6.16071 4.55356C5.71691 4.55356 5.35714 4.91333 5.35714 5.35713C5.35714 5.80093 5.71691 6.1607 6.16071 6.1607Z" fill="white"/>
<path d="M5.62499 13.3928C5.62499 13.5408 5.74491 13.6607 5.89284 13.6607C5.96262 13.6619 6.02969 13.6337 6.07766 13.583C6.13114 13.5343 6.16133 13.4651 6.1607 13.3928V13.125C6.16202 12.6817 6.52102 12.3227 6.96427 12.3214C7.40807 12.3214 7.76784 12.6812 7.76784 13.125V14.7321C7.76784 14.88 7.88776 15 8.03569 15C8.10547 15.0012 8.17255 14.973 8.22052 14.9223C8.27399 14.8736 8.30419 14.8044 8.30355 14.7321V13.9285C8.30488 13.4853 8.66387 13.1263 9.10712 13.125C9.55092 13.125 9.91069 13.4847 9.91069 13.9285V14.1964C9.91069 14.3443 10.0306 14.4642 10.1785 14.4642C10.2483 14.4655 10.3154 14.4373 10.3634 14.3866C10.4168 14.3379 10.447 14.2687 10.4464 14.1964V11.8848L5.62499 11.6303V13.3928Z" fill="white"/>
<path d="M4.56964 6.90534C4.55872 6.996 4.55335 7.08724 4.55357 7.17855C4.53862 7.5631 4.78698 7.9086 5.15625 8.01694C5.74357 8.22554 6.14251 8.77341 6.16071 9.3964V9.92944L6.69643 9.92676V9.10712C6.69643 8.95919 6.81635 8.83926 6.96428 8.83926C7.11222 8.83926 7.23214 8.95919 7.23214 9.10712V9.92408L7.76785 9.9214V9.10712C7.76785 8.95919 7.88777 8.83926 8.03571 8.83926C8.18364 8.83926 8.30357 8.95919 8.30357 9.10712V9.91872L8.83928 9.91605V9.10712C8.83928 8.95919 8.9592 8.83926 9.10713 8.83926C9.25507 8.83926 9.37499 8.95919 9.37499 9.10712V9.91337L9.9107 9.91069V9.3964C9.92891 8.77341 10.3278 8.22554 10.9152 8.01694C11.2844 7.9086 11.5328 7.5631 11.5178 7.17855C11.5181 7.08724 11.5127 6.996 11.5018 6.90534C11.4368 6.25294 11.6215 5.60016 12.0187 5.07856C12.4023 4.53157 12.6021 3.87685 12.5893 3.20892C12.5893 0.0910708 8.50178 0 8.03571 0C7.56964 0 3.48215 0.0910708 3.48215 3.20892C3.46936 3.87685 3.66915 4.53157 4.05268 5.07856C4.4499 5.60016 4.63463 6.25294 4.56964 6.90534ZM8.71874 7.99016C8.67561 8.02039 8.62408 8.03631 8.57142 8.03569C8.48182 8.03523 8.39838 7.98999 8.3491 7.91516L8.03571 7.44641L7.72232 7.91516C7.67427 8.00473 7.57966 8.05939 7.47806 8.05627C7.37646 8.05316 7.28538 7.9928 7.24292 7.90045C7.20045 7.80811 7.21391 7.69968 7.27767 7.62052L7.81339 6.81695C7.86537 6.7462 7.94792 6.70443 8.03571 6.70443C8.1235 6.70443 8.20605 6.7462 8.25803 6.81695L8.79374 7.62052C8.83337 7.67931 8.84774 7.75155 8.83364 7.82104C8.81954 7.89053 8.77815 7.95146 8.71874 7.99016ZM9.9107 4.01785C10.6504 4.01785 11.25 4.61746 11.25 5.35713C11.25 6.09679 10.6504 6.69641 9.9107 6.69641C9.17104 6.69641 8.57142 6.09679 8.57142 5.35713C8.57142 4.61746 9.17104 4.01785 9.9107 4.01785ZM7.47321 0.565177C7.74107 0.538391 7.93928 0.535713 8.03571 0.535713C8.18364 0.535713 8.30357 0.655636 8.30357 0.803569C8.30357 0.951502 8.18364 1.07143 8.03571 1.07143C7.96606 1.07143 7.77857 1.0741 7.52678 1.09821C7.51607 1.09821 7.50803 1.10089 7.49999 1.10089C7.36171 1.09959 7.24644 0.994689 7.23214 0.857141C7.21816 0.70997 7.32605 0.579298 7.47321 0.565177ZM7.49999 5.35713C7.49999 6.09679 6.90038 6.69641 6.16071 6.69641C5.42105 6.69641 4.82143 6.09679 4.82143 5.35713C4.82143 4.61746 5.42105 4.01785 6.16071 4.01785C6.90038 4.01785 7.49999 4.61746 7.49999 5.35713ZM6.35625 0.771427C6.49821 0.73192 6.64542 0.814503 6.68571 0.956248C6.72567 1.09892 6.64319 1.24714 6.50089 1.28839C5.20982 1.65267 4.55357 2.39196 4.55357 3.48213C4.55357 3.63007 4.43365 3.74999 4.28572 3.74999C4.13778 3.74999 4.01786 3.63007 4.01786 3.48213C4.01786 2.14285 4.82679 1.20535 6.35625 0.771427Z" fill="white"/>
<path d="M13.7571 11.3785L15 10.4464H13.291L13.7571 11.3785Z" fill="white"/>
</svg>
