<?xml version="1.0"?>
<svg xmlns="http://www.w3.org/2000/svg" xmlns:xlink="http://www.w3.org/1999/xlink" xmlns:svgjs="http://svgjs.com/svgjs" version="1.1" width="512" height="512" x="0" y="0" viewBox="0 0 1707 1707" style="enable-background:new 0 0 512 512" xml:space="preserve" class=""><g><g id="Layer_x0020_1" fill="#000002"><path d="m532 980c-8 0-16-3-23-8l-133-93c-8-5-13-13-16-22-99-359 182-587 194-597 9-7 22-10 34-7 11 2 21 10 27 21l4 9 148-262c7-13 22-21 37-21 15 1 28 10 34 24l83 181 1-2c4-15 17-26 32-29 16-2 31 5 40 18l90 140 23-51c5-12 16-20 29-23 13-2 26 2 35 11 55 56 79 155 89 234l27-39c10-15 29-21 45-15 17 6 28 22 28 39l-13 379c0 19-15 36-35 38l-112 12c-10 2-20-1-28-7l-167-124 18 85c1 4 2 8 2 13 0 22-18 40-40 40-9 0-18-3-26-9l-94-79-43 87c-5 11-15 19-27 22-13 2-25-1-35-9l-169-144-19 153c-2 13-11 25-24 31-5 3-10 4-16 4z" fill="#ffffff" data-original="#000002" class=""/><path d="m1303 1107c-1 0-2 0-3 0-22-2-38-21-36-43 9-111 4-195 3-196-1-22 16-41 38-43 22-1 41 16 42 38 1 3 6 90-4 207-1 21-19 37-40 37z" fill="#ffffff" data-original="#000002" class=""/><path d="m884 1706c-10 0-19 0-29-1-196 13-343-97-424-318-8-21 3-44 24-51 20-8 43 3 51 23 70 190 183 277 346 266h5c164 11 281-80 349-270 7-21 30-32 51-25 21 8 32 31 24 52-75 213-212 324-397 324z" fill="#ffffff" data-original="#000002" class=""/><path d="m1443 887c-22 0-40-18-40-40v-248c0-225-183-407-407-407h-143c-22 0-40-18-40-40s18-40 40-40h143c268 0 487 218 487 487v248c0 22-18 40-40 40z" fill="#ffffff" data-original="#000002" class=""/><path d="m264 887c-22 0-40-18-40-40v-248c0-269 218-487 486-487h29c22 0 40 18 40 40s-18 40-40 40h-29c-224 0-406 182-406 407v248c0 22-18 40-40 40z" fill="#ffffff" data-original="#000002" class=""/><path d="m391 1285h-172c-22 0-40-18-40-40v-398c0-22 18-40 40-40h180c22 0 40 18 40 40 0 6-8 336-8 398 0 22-18 40-40 40z" fill="#ffffff" data-original="#000002" class=""/><path d="m1488 1285h-173c-22 0-40-18-40-40 0-59-7-391-7-398 0-22 18-40 40-40h180c22 0 40 18 40 40v398c0 22-18 40-40 40z" fill="#ffffff" data-original="#000002" class=""/><path d="m1036 1471c-25 0-51-1-78-4-6-1-12-3-17-6l-88-55-88 55c-5 3-10 5-16 6-163 17-279-18-347-104-93-120-51-292-49-300 3-9 9-17 17-23 58-39 185-59 376-59 56 0 97 2 107 3 10-1 51-3 107-3 191 0 318 20 377 59 8 6 14 14 16 23 2 8 44 180-49 300-56 72-146 108-268 108z" fill="#ffffff" data-original="#000002" class=""/><path d="m139 1191h-61c-23 0-40-18-40-40v-211c0-22 17-40 40-40h61z" fill="#ffffff" data-original="#000002" class=""/><path d="m1629 1191h-61v-291h61c22 0 40 18 40 40v211c0 22-18 40-40 40z" fill="#ffffff" data-original="#000002" class=""/></g></g></svg>
