<svg width="11" height="13" viewBox="0 0 11 13" fill="none" xmlns="http://www.w3.org/2000/svg">
<path d="M5.49928 0C2.46243 0.00146602 0 2.47758 0 5.53275V8.13935C0 8.27714 0.0641485 8.40615 0.173493 8.48972L2.53824 10.2944V11.7824C2.53824 12.0258 2.7336 12.2222 2.97562 12.2222H3.32698C3.56899 12.2222 3.76435 12.0258 3.76435 11.7824V11.1784C3.76435 11.0245 3.88828 10.8999 4.04136 10.8999C4.19444 10.8999 4.31836 11.0245 4.31836 11.1784V11.7824C4.31836 12.0258 4.51372 12.2222 4.75574 12.2222H4.77032C5.01233 12.2222 5.20769 12.0258 5.20769 11.7824V11.1784C5.20769 11.0245 5.33162 10.8999 5.4847 10.8999H5.51386C5.66694 10.8999 5.79086 11.0245 5.79086 11.1784V11.7824C5.79086 12.0258 5.98622 12.2222 6.22824 12.2222H6.24282C6.48483 12.2222 6.68019 12.0258 6.68019 11.7824V11.1784C6.68019 11.0245 6.80412 10.8999 6.9572 10.8999C7.11028 10.8999 7.2342 11.0245 7.2342 11.1784V11.7824C7.2342 12.0258 7.42957 12.2222 7.67158 12.2222H8.0244C8.26641 12.2222 8.46177 12.0258 8.46177 11.7824V10.2929L10.8265 8.48827C10.9359 8.4047 11 8.27569 11 8.13789V5.5313C10.9986 2.47758 8.53613 0.00146602 5.49928 0ZM3.20014 8.18187C2.36329 8.18187 1.6839 7.4987 1.6839 6.6572C1.6839 5.81572 2.36329 5.13254 3.20014 5.13254C4.03698 5.13254 4.71637 5.81572 4.71637 6.6572C4.71637 7.50017 4.03698 8.18187 3.20014 8.18187ZM5.93082 9.30337H5.06919C4.86946 9.30337 4.74262 9.08787 4.83884 8.91195L5.27038 8.12471C5.36952 7.94292 5.63049 7.94292 5.72963 8.12471L6.16119 8.91195C6.25595 9.08785 6.1291 9.30337 5.93082 9.30337ZM7.79842 8.18187C6.96157 8.18187 6.28218 7.4987 6.28218 6.6572C6.28218 5.81572 6.96157 5.13254 7.79842 5.13254C8.63525 5.13254 9.31466 5.81572 9.31466 6.6572C9.31466 7.50017 8.63672 8.18187 7.79842 8.18187Z" fill="white"/>
</svg>
