<svg width="15" height="15" viewBox="0 0 15 15" fill="none" xmlns="http://www.w3.org/2000/svg">
<path d="M8.81836 1.34766C8.81836 0.620684 8.22697 0 7.5 0C6.77303 0 6.18164 0.620684 6.18164 1.34766C6.18164 2.07463 6.77303 2.66602 7.5 2.66602C8.22697 2.66602 8.81836 2.07463 8.81836 1.34766Z" fill="white"/>
<path d="M9.69727 4.86328C9.69727 3.65177 8.71151 2.66602 7.5 2.66602C6.28849 2.66602 5.30273 3.65177 5.30273 4.86328V5.30273H9.69727V4.86328Z" fill="white"/>
<path d="M12.7734 7.93945C13.5015 7.93945 14.0918 7.3492 14.0918 6.62109C14.0918 5.89298 13.5015 5.30273 12.7734 5.30273C12.0453 5.30273 11.4551 5.89298 11.4551 6.62109C11.4551 7.3492 12.0453 7.93945 12.7734 7.93945Z" fill="white"/>
<path d="M12.7734 7.93945C11.5619 7.93945 10.5762 8.92521 10.5762 10.1367V10.5762H15V10.1367C15 8.92521 13.985 7.93945 12.7734 7.93945Z" fill="white"/>
<path d="M2.22656 7.93945C2.95467 7.93945 3.54492 7.3492 3.54492 6.62109C3.54492 5.89298 2.95467 5.30273 2.22656 5.30273C1.49845 5.30273 0.908203 5.89298 0.908203 6.62109C0.908203 7.3492 1.49845 7.93945 2.22656 7.93945Z" fill="white"/>
<path d="M4.42383 10.1367C4.42383 8.92521 3.43808 7.93945 2.22656 7.93945C1.01505 7.93945 0 8.92521 0 10.1367V10.5762H4.42383V10.1367Z" fill="white"/>
<path d="M7.5 12.334C8.22811 12.334 8.81836 11.7437 8.81836 11.0156C8.81836 10.2875 8.22811 9.69727 7.5 9.69727C6.77189 9.69727 6.18164 10.2875 6.18164 11.0156C6.18164 11.7437 6.77189 12.334 7.5 12.334Z" fill="white"/>
<path d="M9.69727 14.5312C9.69727 13.3197 8.71151 12.334 7.5 12.334C6.28849 12.334 5.30273 13.3197 5.30273 14.5312V15H9.69727V14.5312Z" fill="white"/>
<path d="M2.66602 3.98438C2.66602 3.2574 3.2574 2.66602 3.98438 2.66602H4.42383V1.78711H3.98438C2.77286 1.78711 1.78711 2.77286 1.78711 3.98438V4.42383H2.66602V3.98438Z" fill="white"/>
<path d="M12.334 3.98438V4.42383H13.2129V3.98438C13.2129 2.77286 12.2271 1.78711 11.0156 1.78711H10.5762V2.66602H11.0156C11.7426 2.66602 12.334 3.2574 12.334 3.98438Z" fill="white"/>
<path d="M1.78711 11.4551V11.8945C1.78711 13.106 2.77286 14.0918 3.98438 14.0918H4.42383V13.2129H3.98438C3.2574 13.2129 2.66602 12.6215 2.66602 11.8945V11.4551H1.78711Z" fill="white"/>
<path d="M13.2129 11.8945V11.4551H12.334V11.8945C12.334 12.6215 11.7426 13.2129 11.0156 13.2129H10.5762V14.0918H11.0156C12.2271 14.0918 13.2129 13.106 13.2129 11.8945Z" fill="white"/>
</svg>
