<svg width="15" height="15" viewBox="0 0 15 15" fill="none" xmlns="http://www.w3.org/2000/svg">
<path d="M13.6816 0H1.31836C0.591387 0 0 0.591387 0 1.31836V10.166C0 10.893 0.591387 11.4844 1.31836 11.4844H2.68119C2.85639 12.344 3.53487 13.0225 4.39453 13.1977V14.5605C4.39453 14.8034 4.59108 15 4.83398 15H10.166C10.4089 15 10.6055 14.8034 10.6055 14.5605V13.1977C11.4651 13.0225 12.1436 12.344 12.3188 11.4844H13.6816C14.4086 11.4844 15 10.893 15 10.166V1.31836C15 0.591387 14.4086 0 13.6816 0ZM7.5293 6.23438C7.77199 6.23438 7.97461 6.4077 7.97461 6.65039C7.97461 6.89309 7.77199 7.0957 7.5293 7.0957C7.2866 7.0957 7.08398 6.89309 7.08398 6.65039C7.08398 6.4077 7.2866 6.23438 7.5293 6.23438ZM7.5293 7.99219C7.77199 7.99219 7.97461 8.16551 7.97461 8.4082C7.97461 8.6509 7.77199 8.85352 7.5293 8.85352C7.2866 8.85352 7.08398 8.6509 7.08398 8.4082C7.08398 8.16551 7.2866 7.99219 7.5293 7.99219ZM0.878906 3.51562V1.31836C0.878906 1.0759 1.0759 0.878906 1.31836 0.878906H7.03125V3.51562H0.878906ZM2.63672 8.4082V6.65039C2.63672 5.92342 3.22811 5.37891 3.95508 5.37891C4.68205 5.37891 5.27344 5.92342 5.27344 6.65039V8.4082C5.27344 9.13518 4.68205 9.73242 3.95508 9.73242C3.22811 9.73242 2.63672 9.13518 2.63672 8.4082ZM10.166 12.3633H4.83398C4.26182 12.3633 3.77859 11.9889 3.59657 11.4785H11.4034C11.2214 11.9889 10.7382 12.3633 10.166 12.3633ZM11.9238 9.72656H10.166C9.92311 9.72656 9.75 9.53001 9.75 9.28711C9.75 9.04421 9.92311 8.84766 10.166 8.84766H10.6055V6.83235L10.4767 6.96111C10.3051 7.13276 10.0269 7.13276 9.85529 6.96111C9.68364 6.78946 9.68364 6.51135 9.85529 6.3397L10.7342 5.46079C11.0119 5.18399 11.4844 5.38181 11.4844 5.77148V8.84766H11.9238C12.1667 8.84766 12.3691 9.04421 12.3691 9.28711C12.3691 9.53001 12.1667 9.72656 11.9238 9.72656ZM14.1211 3.51562H7.96875V0.878906H13.6816C13.9241 0.878906 14.1211 1.0759 14.1211 1.31836V3.51562Z" fill="white"/>
<path d="M3.95508 6.24023C3.71262 6.24023 3.51562 6.43723 3.51562 6.67969V8.4375C3.51562 8.67996 3.71262 8.84766 3.95508 8.84766C4.19754 8.84766 4.39453 8.67996 4.39453 8.4375V6.67969C4.39453 6.43723 4.19754 6.24023 3.95508 6.24023Z" fill="white"/>
<path d="M5.71289 1.78711H2.19727C1.95437 1.78711 1.75781 1.98366 1.75781 2.22656C1.75781 2.46946 1.95437 2.66602 2.19727 2.66602H5.71289C5.95579 2.66602 6.15234 2.46946 6.15234 2.22656C6.15234 1.98366 5.95579 1.78711 5.71289 1.78711Z" fill="white"/>
<path d="M12.8027 1.78711H9.28711C9.04421 1.78711 8.84766 1.98366 8.84766 2.22656C8.84766 2.46946 9.04421 2.66602 9.28711 2.66602H12.8027C13.0456 2.66602 13.2422 2.46946 13.2422 2.22656C13.2422 1.98366 13.0456 1.78711 12.8027 1.78711Z" fill="white"/>
</svg>
