<svg width="13" height="12" viewBox="0 0 13 12" fill="none" xmlns="http://www.w3.org/2000/svg">
<path d="M2.43246 6.5839C2.50203 6.81086 2.57397 7.04558 2.60986 7.28198C2.62453 7.37833 2.68207 8.07913 2.71318 8.46415C2.72509 8.61167 2.83696 8.7316 2.9833 8.75373L3.49454 8.83103C3.56825 8.84218 3.62704 8.89839 3.64139 8.97155L3.70875 9.31608C3.73803 9.46582 3.86928 9.57382 4.02186 9.57374L7.98651 9.57139C8.13643 9.57129 8.26603 9.46679 8.29787 9.32029L8.37501 8.96559C8.39204 8.89558 8.44989 8.84297 8.52119 8.83259L9.14362 8.74219C9.29319 8.72047 9.40695 8.59678 9.41604 8.44591C9.43992 8.04977 9.48449 7.32855 9.49831 7.22973C9.53104 6.99642 9.5999 6.76579 9.66641 6.54143C9.75964 6.22747 9.85604 5.90339 9.85604 5.56635C9.85616 3.41397 8.14534 1.66325 6.04252 1.66325C3.93971 1.66325 2.2289 3.41493 2.2289 5.56777C2.22892 5.91985 2.33239 6.25746 2.43246 6.5839ZM6.53945 6.38527C6.56362 5.77392 7.11185 5.6202 7.72319 5.64436C8.33454 5.66853 8.77749 5.86146 8.75332 6.4728C8.72914 7.08415 8.21396 7.56015 7.60262 7.53597C6.99127 7.5118 6.51527 6.99662 6.53945 6.38527ZM6.17977 7.5849L6.57659 8.17252C6.61179 8.22463 6.61661 8.29154 6.58924 8.34816L6.53232 8.46599C6.50284 8.52699 6.44106 8.56574 6.37333 8.56574H5.69354C5.62578 8.56574 5.56401 8.52697 5.53455 8.46599L5.47763 8.34816C5.45026 8.29154 5.45509 8.22465 5.49028 8.17252L5.8871 7.5849C5.95711 7.48121 6.10976 7.48121 6.17977 7.5849ZM4.36179 5.64438C4.97314 5.6202 5.52136 5.77392 5.54554 6.38529C5.56971 6.99664 5.09372 7.51182 4.48237 7.53599C3.87102 7.56017 3.35584 7.08417 3.33167 6.47282C3.30749 5.86146 3.75045 5.66853 4.36179 5.64438Z" fill="white"/>
<path d="M11.0154 1.10184C11.063 0.809798 10.974 0.499838 10.7481 0.275076C10.3853 -0.0859466 9.79333 -0.09252 9.42298 0.2608C9.03574 0.630237 9.03028 1.24376 9.40659 1.62007L9.06069 1.96596C8.92249 2.10418 8.92249 2.32827 9.06069 2.46649L9.65075 3.05655C9.78895 3.19477 10.0131 3.19477 10.1513 3.05655L10.4972 2.71066C10.8735 3.08699 11.487 3.0815 11.8564 2.69426C12.2097 2.32392 12.2032 1.73193 11.8421 1.36911C11.6174 1.1432 11.3074 1.05428 11.0154 1.10184Z" fill="white"/>
<path d="M1.62008 2.71064L1.96597 3.05653C2.10419 3.19475 2.32828 3.19475 2.46648 3.05653L3.05654 2.46647C3.19476 2.32825 3.19476 2.10416 3.05654 1.96594L2.71065 1.62005C3.08697 1.24374 3.08149 0.630217 2.69425 0.260781C2.3239 -0.0925199 1.73194 -0.0859465 1.3691 0.275076C1.14321 0.499838 1.05429 0.809798 1.10185 1.10184C0.809806 1.05428 0.499866 1.1432 0.275083 1.36909C-0.0859389 1.73192 -0.0925321 2.3239 0.260788 2.69424C0.630225 3.08148 1.24375 3.08695 1.62008 2.71064Z" fill="white"/>
<path d="M11.8565 9.30574C11.487 8.91848 10.8735 8.91304 10.4972 9.28934L10.1513 8.94345C10.0131 8.80523 9.78899 8.80523 9.65079 8.94345L9.06073 9.53351C8.92253 9.67173 8.92253 9.89582 9.06073 10.034L9.40663 10.3799C9.0303 10.7563 9.03578 11.3698 9.42302 11.7392C9.79337 12.0925 10.3853 12.0859 10.7482 11.7249C10.9741 11.5002 11.063 11.1902 11.0154 10.8982C11.3075 10.9457 11.6174 10.8568 11.8422 10.6309C12.2032 10.268 12.2098 9.67609 11.8565 9.30574Z" fill="white"/>
<path d="M1.10186 10.8981C1.0543 11.1902 1.14322 11.5001 1.36913 11.7249C1.73197 12.0859 2.32393 12.0925 2.69428 11.7392C3.08152 11.3697 3.08698 10.7562 2.71068 10.3799L3.05657 10.034C3.19479 9.89582 3.19479 9.67171 3.05657 9.53349L2.46651 8.94343C2.32829 8.80521 2.1042 8.80521 1.966 8.94343L1.6201 9.28932C1.24378 8.913 0.630254 8.91846 0.260836 9.30572C-0.0924838 9.67607 -0.0859104 10.268 0.275112 10.6309C0.499875 10.8568 0.809814 10.9457 1.10186 10.8981Z" fill="white"/>
</svg>
