<svg width="15" height="15" viewBox="0 0 15 15" fill="none" xmlns="http://www.w3.org/2000/svg">
<rect width="15" height="15" rx="7.5" fill="#0056f3"/>
<path fill-rule="evenodd" clip-rule="evenodd" d="M6.31107 4.54079C6.51357 4.74328 6.51357 5.07159 6.31107 5.27408L4.08513 7.50003L6.31107 9.72597C6.51357 9.92847 6.51357 10.2568 6.31107 10.4593C6.10858 10.6618 5.78027 10.6618 5.57778 10.4593L2.98518 7.86667C2.78269 7.66418 2.78269 7.33587 2.98518 7.13338L5.57778 4.54079C5.78027 4.33829 6.10858 4.33829 6.31107 4.54079ZM8.68889 4.54079C8.89138 4.33829 9.21969 4.33829 9.42218 4.54079L12.0148 7.13338C12.2173 7.33587 12.2173 7.66418 12.0148 7.86667L9.42218 10.4593C9.21969 10.6618 8.89138 10.6618 8.68889 10.4593C8.48639 10.2568 8.48639 9.92847 8.68889 9.72597L10.9148 7.50003L8.68889 5.27408C8.48639 5.07159 8.48639 4.74328 8.68889 4.54079Z" fill="white"/>
</svg>
