<svg width="21" height="21" viewBox="0 0 21 21" fill="none"
  xmlns="http://www.w3.org/2000/svg">
  <rect x="0.5" y="0.5" width="20" height="20" rx="10" fill="#0056f3"/>
  <path fill-rule="evenodd" clip-rule="evenodd" d="M6.0096 8.12204C6.18483 8.28476 6.18483 8.54858 6.0096 8.7113L4.0833 10.5L6.0096 12.2887C6.18483 12.4514 6.18483 12.7152 6.0096 12.878C5.83436 13.0407 5.55025 13.0407 5.37502 12.878L3.13143 10.7946C2.95619 10.6319 2.95619 10.3681 3.13143 10.2054L5.37502 8.12204C5.55025 7.95932 5.83436 7.95932 6.0096 8.12204ZM14.9904 8.12204C15.1656 7.95932 15.4497 7.95932 15.625 8.12204L17.8686 10.2054C18.0438 10.3681 18.0438 10.6319 17.8686 10.7946L15.625 12.878C15.4497 13.0407 15.1656 13.0407 14.9904 12.878C14.8152 12.7152 14.8152 12.4514 14.9904 12.2887L16.9167 10.5L14.9904 8.7113C14.8152 8.54858 14.8152 8.28476 14.9904 8.12204Z" fill="white"/>
  <path d="M11.0496 13.0001L10.1162 11.2668H9.97622V13.0001H8.66956V8.30009H10.7296C11.1073 8.30009 11.4273 8.36676 11.6896 8.50009C11.9518 8.62898 12.1496 8.80898 12.2829 9.04009C12.4162 9.26676 12.4829 9.52231 12.4829 9.80676C12.4829 10.1268 12.394 10.409 12.2162 10.6534C12.0429 10.8934 11.7873 11.0645 11.4496 11.1668L12.5096 13.0001H11.0496ZM9.97622 10.3734H10.6229C10.8007 10.3734 10.934 10.3312 11.0229 10.2468C11.1118 10.1623 11.1562 10.0401 11.1562 9.88009C11.1562 9.72898 11.1096 9.6112 11.0162 9.52676C10.9273 9.43787 10.7962 9.39342 10.6229 9.39342H9.97622V10.3734Z" fill="white"/>
</svg>
